<?xml version="1.0" ?><svg viewBox="0 0 1000 1000" xmlns="http://www.w3.org/2000/svg"><path d="m797.41 588.66a110.6 110.6 0 0 1 -43.41-88.21v-191.38h4.67a14.38 14.38 0 0 0 14.38-14.38 14.38 14.38 0 0 0 -14.38-14.39h-174.06a14.38 14.38 0 0 0 -14.38 14.39 14.38 14.38 0 0 0 14.38 14.38h2.39v191.38a110.6 110.6 0 0 1 -43.37 88.21 210.16 210.16 0 0 0 -56.63 269.64 63.54 63.54 0 0 0 55.56 32.3h256a63.54 63.54 0 0 0 55.56-32.3 210.16 210.16 0 0 0 -56.71-269.64z" fill="#f4f4f4"/><path d="m524.79 858.3a210.16 210.16 0 0 1 56.71-269.64 110.63 110.63 0 0 0 43.37-88.21v-191.38h-2.43a14.38 14.38 0 0 1 -14.39-14.38 14.39 14.39 0 0 1 14.39-14.39h-37.83a14.38 14.38 0 0 0 -14.38 14.39 14.38 14.38 0 0 0 14.38 14.38h2.39v191.38a110.6 110.6 0 0 1 -43.37 88.21 210.16 210.16 0 0 0 -56.63 269.64 63.54 63.54 0 0 0 55.56 32.3h37.83a63.53 63.53 0 0 1 -55.6-32.3z" fill="#fff"/><path d="m854.12 858.3a210.46 210.46 0 0 0 19.7-155.3c-1.06-4.09-56.66 12.66-61.55 14.09-34.84 10.25-70.6 14.18-106.28 6.14-27.94-6.29-55.33-18.79-84.57-15.21-29 3.54-55.37 17.7-84.37 21.57-12.38 1.65-25.14 1.58-37.35-1.21-11.91-2.72-23.22-11.57-35.78-10.42a211.19 211.19 0 0 0 -3.46 38.14 209.08 209.08 0 0 0 26.54 102.2 63.54 63.54 0 0 0 55.56 32.3h256a63.54 63.54 0 0 0 55.56-32.3z" fill="#e9e9e9"/><path d="m878 723.2c-27-27.53-64.71-47.88-116.52-35.08-71.45 17.65-90.79 63.89-185.78 31.94-60.64-20.39-96.26-2.41-114.1 13.91a209.94 209.94 0 0 0 25.4 124.33 63.54 63.54 0 0 0 55.56 32.3h256a63.54 63.54 0 0 0 55.56-32.3 210.49 210.49 0 0 0 23.88-135.1z" fill="#ccc"/><g fill="#e9e9e9"><path d="m479.54 783.11a18.93 18.93 0 0 0 18.88-19.65q-.14-3.68-.13-7.36a211.58 211.58 0 0 1 4.38-42.86 87 87 0 0 0 -41 20.73c-.19 1.77-.35 3.54-.5 5.33v.46c-.13 1.63-.24 3.27-.33 4.91 0 .59 0 1.18-.08 1.77-.06 1.27-.12 2.53-.15 3.8q-.09 2.91-.09 5.85 0 4.46.19 8.87a18.9 18.9 0 0 0 18.89 18.14z"/><path d="m524.79 858.3a208.87 208.87 0 0 1 -12.95-27.82 17.41 17.41 0 0 0 -16.29-11.22 17.46 17.46 0 0 0 -15.85 24.74q3.36 7.29 7.26 14.27c.7 1.25 1.44 2.47 2.22 3.67a61.5 61.5 0 0 0 6.5 8.32 62.32 62.32 0 0 0 6.09 5.75 64.07 64.07 0 0 0 40.75 14.56h37.83a63.53 63.53 0 0 1 -55.56-32.27z"/><path d="m491.62 865.45c-.85-1.13-1.67-2.29-2.44-3.48.82 1.19 1.59 2.35 2.44 3.48z"/><path d="m495.68 870.29a60.79 60.79 0 0 1 -4.06-4.84 60.79 60.79 0 0 0 4.06 4.84z"/><path d="m514 883.94c-1.25-.61-2.48-1.27-3.68-2 1.2.73 2.43 1.39 3.68 2z"/><path d="m505.07 878.58c-1.12-.81-2.23-1.66-3.3-2.54 1.07.88 2.23 1.73 3.3 2.54z"/><path d="m873.82 703c-.38-1.46-7.71-.27-17.21 1.94a152.53 152.53 0 0 1 21.39 18.26q-1.59-10.27-4.18-20.2z"/><path d="m460.46 756.1c0-1.81 0-3.61.07-5.4-.04 1.79-.07 3.59-.07 5.4z"/><path d="m460.56 749.91c.05-1.63.11-3.25.2-4.86-.08 1.61-.15 3.23-.2 4.86z"/><path d="m849.46 865.45a63 63 0 0 1 -4.06 4.84 63 63 0 0 0 4.06-4.84z"/><path d="m517.79 885.67c-1.28-.53-2.55-1.11-3.79-1.73 1.24.62 2.51 1.2 3.79 1.73z"/><path d="m878.09 723.57c.18 1.14.35 2.28.51 3.43-.16-1.15-.33-2.29-.51-3.43z"/><path d="m851.9 862c-.78 1.19-1.59 2.35-2.44 3.48.85-1.16 1.66-2.32 2.44-3.48z"/><path d="m839.31 876c-1.07.88-2.18 1.73-3.31 2.54 1.13-.77 2.24-1.62 3.31-2.54z"/><path d="m827.08 883.94c-1.24.62-2.51 1.2-3.8 1.73 1.29-.53 2.56-1.11 3.8-1.73z"/><path d="m836 878.58a61.61 61.61 0 0 1 -5.24 3.39 61.61 61.61 0 0 0 5.24-3.39z"/><path d="m830.76 882c-1.21.7-2.43 1.36-3.68 2 1.25-.67 2.47-1.33 3.68-2z"/><path d="m510.32 882q-2.7-1.56-5.25-3.39 2.55 1.8 5.25 3.39z"/><path d="m880.47 748.27c0 1 .06 1.9.08 2.85-.02-.95-.05-1.9-.08-2.85z"/><path d="m879.16 731.37q.71 5.93 1.07 11.94-.37-6.01-1.07-11.94z"/><path d="m880.58 752.22v3.88c.04-1.3.02-2.59 0-3.88z"/><path d="m880.27 744.13c.06 1 .11 2 .15 3-.04-.99-.09-2-.15-3z"/><path d="m687.69 718.44c-21.73-6.2-43.43-13.21-66.27-10.42-15.87 1.94-30.94 7.05-46.08 11.91l.4.13c53.89 18.13 83.43 11.09 111.95-1.62z"/></g><path d="m480.38 721.05c-5.38-2.05-10.77-3.61-16.46-3.05a211.47 211.47 0 0 0 -3.15 26.85q.3-5.46.87-10.84a84.26 84.26 0 0 1 18.74-12.96z"/><path d="m878.67 727.49c.16 1.21.32 2.43.46 3.65-.13-1.22-.3-2.44-.46-3.65z" fill="#e9e9e9"/><g fill="#ccc"><path d="m460.76 745.05c0-.08 0-.16 0-.24.01.08 0 .19 0 .24z"/><path d="m880.23 743.31v.82c.03-.27.01-.55 0-.82z"/><path d="m878 723.2c0 .12 0 .25.05.37.02-.12.01-.24-.05-.37z"/><path d="m878.6 727c0 .16 0 .33.07.49-.03-.16-.05-.33-.07-.49z"/></g><path d="m537.05 729.59c13.15-1.76 25.74-5.62 38.29-9.66-43.87-14.65-74.61-9.2-95 1.12 6.46 2.52 12.8 5.84 19.32 7.33 12.25 2.79 25.01 2.86 37.39 1.21z"/><path d="m812.27 717.09c3.15-.92 27.24-8.17 44.34-12.15-24.61-17.14-55.75-26.54-95.09-16.82-30.92 7.64-52.08 20.63-73.83 30.32 6.09 1.74 12.18 3.42 18.3 4.79 35.68 8.04 71.44 4.11 106.28-6.14z"/><g fill="#ccc"><path d="m880.42 747.14c0 .38 0 .75.05 1.13-.02-.38-.03-.75-.05-1.13z"/><path d="m880.55 751.12v1.1z"/><path d="m879.13 731.14v.23z"/><path d="m460.53 750.7v-.79z"/></g><path d="m797.41 588.66a110.6 110.6 0 0 1 -43.41-88.21v-191.38h4.67a14.38 14.38 0 0 0 14.38-14.38 14.38 14.38 0 0 0 -14.38-14.39h-174.06a14.38 14.38 0 0 0 -14.38 14.39 14.38 14.38 0 0 0 14.38 14.38h2.39v191.38a110.6 110.6 0 0 1 -43.37 88.21 210.16 210.16 0 0 0 -56.63 269.64 63.54 63.54 0 0 0 55.56 32.3h256a63.54 63.54 0 0 0 55.56-32.3 210.16 210.16 0 0 0 -56.71-269.64z" fill="none" stroke="#000" stroke-miterlimit="10"/><g fill="#e9e9e9"><path d="m618.06 756.1h6.81v6.81h-6.81z"/><path d="m635.99 779.75h4.76v4.76h-4.76z"/><path d="m664.01 762.91h4.22v4.22h-4.22z"/><path d="m677.46 802.17h6.16v6.16h-6.16z"/><path d="m745.27 775.27h6.87v6.87h-6.87z"/><path d="m733.5 826.82h2.8v2.8h-2.8z"/><path d="m595.64 802.17h3.08v3.08h-3.08z"/><path d="m711.08 754.16h5.35v5.35h-5.35z"/><path d="m549.69 754.16h9.53v9.53h-9.53z"/><path d="m761.52 749.7h4.46v4.46h-4.46z"/></g><path d="m580.35 775.27h4.48v4.48h-4.48z" fill="#f4f4f4"/><path d="m638.37 824.96h4.67v4.67h-4.67z" fill="#e9e9e9"/><path d="m600.5 777.51h4.86v4.86h-4.86z" fill="#e9e9e9"/><g fill="#ffa766"><path d="m640.71 661.22h5.35v5.35h-5.35z"/><path d="m761.52 637.68h2.23v2.23h-2.23z"/><path d="m569.86 639.92h9.25v9.25h-9.25z"/></g><g fill="#ff6679"><path d="m592.84 678.87h5.33v5.33h-5.33z"/><path d="m683.62 637.68h4.06v4.06h-4.06z"/><path d="m785.62 657.02h4.2v4.2h-4.2z"/></g><g fill="#60d8d2"><path d="m611.33 621.71h6.72v6.72h-6.72z"/><path d="m725.09 666.57h5.31v5.31h-5.31z"/><path d="m787.72 621.71h3.36v3.36h-3.36z"/></g><g fill="#8f8fef"><path d="m654.48 582.48h7.57v7.57h-7.57z"/><path d="m670.54 687.84h4.86v4.86h-4.86z"/><path d="m730.41 612.75h4.49v4.49h-4.49z"/><path d="m822.05 649.16h7.3v7.3h-7.3z"/></g><g fill="#3a3144"><path d="m653.16 268-3.91 16.7-10.53 45-15.61 66.78-19.05 81.52-20.79 88.93-21.12 90.37-19.57 83.7-16.58 71-11.93 51c-1.88 8-3.89 16.08-5.64 24.16l-.24 1c-.15.62.81.89 1 .26l3.9-16.7 10.53-45 15.62-66.78 19-81.47 20.76-88.94 21.12-90.37 19.57-83.69 16.59-71 11.94-51c1.88-8 3.88-16.08 5.64-24.16l.24-1c.15-.62-.82-.89-1-.26z"/><path d="m570.64 268-3.91 16.7-10.53 45-15.61 66.78-19.05 81.52-20.79 88.93-21.13 90.37-19.57 83.7-16.59 71-11.93 51c-1.88 8-3.89 16.08-5.65 24.16-.07.34-.16.68-.24 1-.14.62.82.89 1 .26l3.9-16.7 10.53-45 15.61-66.78 19.05-81.47 20.79-88.93 21.13-90.37 19.57-83.69 16.59-71 11.93-51c1.88-8 3.89-16.08 5.65-24.16.07-.34.16-.68.24-1 .15-.62-.82-.89-1-.26z"/><path d="m577.2 280.4h70.39a27.28 27.28 0 0 0 2.86 0h.12a.28.28 0 0 0 0-.55h-70.39c-.93 0-1.92-.09-2.85 0h-.13a.28.28 0 0 0 0 .55z"/><path d="m568.17 319.11h70.39a27.09 27.09 0 0 0 2.85 0h.13a.28.28 0 0 0 0-.55h-70.39c-.93 0-1.93-.09-2.86 0h-.12a.28.28 0 0 0 0 .55z"/><path d="m559.13 357.82h70.39a27.28 27.28 0 0 0 2.86 0h.13a.27.27 0 0 0 0-.54h-70.39a27.28 27.28 0 0 0 -2.86 0h-.13a.27.27 0 0 0 0 .54z"/><path d="m550.1 396.53h70.39a27.28 27.28 0 0 0 2.86 0h.12a.27.27 0 0 0 0-.54h-70.39a27.09 27.09 0 0 0 -2.85 0h-.13a.27.27 0 0 0 0 .54z"/><path d="m541.07 435.24h70.39a27.09 27.09 0 0 0 2.85 0h.13a.27.27 0 0 0 0-.54h-70.39a27.28 27.28 0 0 0 -2.86 0h-.12a.27.27 0 0 0 0 .54z"/><path d="m532 474h70.39a27.28 27.28 0 0 0 2.86 0h.13a.27.27 0 0 0 0-.54h-70.38a27.28 27.28 0 0 0 -2.86 0h-.14a.27.27 0 0 0 0 .54z"/><path d="m523 512.66h70.39a27.28 27.28 0 0 0 2.86 0h.12a.27.27 0 0 0 0-.54h-70.37a27.09 27.09 0 0 0 -2.85 0h-.15a.27.27 0 0 0 0 .54z"/><path d="m514 551.37h70.39a27.09 27.09 0 0 0 2.85 0h.13a.27.27 0 0 0 0-.54h-70.37a27.28 27.28 0 0 0 -2.86 0h-.14a.27.27 0 0 0 0 .54z"/><path d="m504.93 590.09h70.39c.94 0 1.93.09 2.86 0h.13a.28.28 0 0 0 0-.55h-70.39a27.28 27.28 0 0 0 -2.86 0h-.13a.28.28 0 0 0 0 .55z"/><path d="m495.9 628.8h70.39c.93 0 1.92.09 2.86 0h.12a.28.28 0 0 0 0-.55h-70.39c-.93 0-1.92-.09-2.85 0h-.13a.28.28 0 0 0 0 .55z"/><path d="m486.87 667.51h70.39c.93 0 1.92.09 2.85 0h.13a.28.28 0 0 0 0-.55h-70.39c-.94 0-1.93-.09-2.86 0h-.12a.28.28 0 0 0 0 .55z"/><path d="m477.83 706.22h70.39c.94 0 1.93.09 2.86 0h.12a.28.28 0 0 0 0-.55h-70.38c-.94 0-1.93-.09-2.86 0h-.13a.28.28 0 0 0 0 .55z"/><path d="m468.8 744.93h70.39c.93 0 1.92.09 2.85 0h.13a.28.28 0 0 0 0-.55h-70.39c-.93 0-1.92-.09-2.86 0h-.12a.28.28 0 0 0 0 .55z"/><path d="m459.76 783.64h70.39a27.28 27.28 0 0 0 2.86 0h.13a.28.28 0 0 0 0-.55h-70.39c-.94 0-1.93-.09-2.86 0h-.13a.28.28 0 0 0 0 .55z"/><path d="m450.73 822.35h70.39a27.28 27.28 0 0 0 2.86 0h.12a.28.28 0 0 0 0-.55h-70.39c-.93 0-1.92-.09-2.85 0h-.13a.28.28 0 0 0 0 .55z"/><path d="m441.7 861.06h70.39a27.09 27.09 0 0 0 2.85 0h.13a.27.27 0 0 0 0-.54h-70.39a27.28 27.28 0 0 0 -2.86 0h-.12a.27.27 0 0 0 0 .54z"/></g><path d="m534.55 596.34a.13.13 0 1 0 0-.25.13.13 0 0 0 0 .25z"/><path d="m497.26 637.31s45.77-1.11 54.4-9h-44.79l-3.2.13" fill="#3a3144"/><path d="m442.53 358.51h1.3a.13.13 0 0 0 0-.25h-1.3a.13.13 0 0 0 0 .25z"/><path d="m442.63 367 1.3-.67c.14-.07 0-.29-.13-.21l-1.3.66c-.14.07 0 .29.13.22z"/><path d="m441.8 374.72a.91.91 0 0 0 1.44 0c.1-.12-.08-.3-.18-.17a.65.65 0 0 1 -1 0c-.1-.13-.32 0-.22.13z"/><path d="m744.88 288.25-28.19 32.2a2.47 2.47 0 0 0 1.38 4.05l42 8.31a2.47 2.47 0 0 0 2.82-3.22l-13.79-40.51a2.47 2.47 0 0 0 -4.22-.83z" fill="#ffa766"/><rect fill="#60d8d2" height="58.92" rx="29.46" width="58.92" x="658.23" y="354.73"/><path d="m570.87 180.44s10.21 4.61 24.94-24.19 32.1-16.46 29.93-1.71c0 0 25.63-14.8 22.58 2.15 0 0 70.38-40.4 80.37-10.43s-21.69 43.8-21.69 43.8 67.33 7.89 49.52 49.16-105.7-5.22-105.7-5.22 53.89 18.24 28.74 32.14-54.69-36.14-54.69-36.14 6.24 12.22-6.52 10.53-16.51-18.79-25.63-13.74" fill="#f4f4f4"/><path d="m540.16 228.5s-2.71 7.66-3.92 3.91-5.31-10.16-5.31-10.16l-7.77-13.74-.75-1.18s-1.9-1 .76-2.65a82.17 82.17 0 0 0 6.66-4.9l22.41-16.51s10.35-8.91 18.93-8.27 20.51 11.22 24.15 15.85a105.08 105.08 0 0 1 8.83 13.35 115.4 115.4 0 0 1 4.65 13c.54 2.53 2.11 8.43 1.41 11s-.32 6.43-5.76 12a242.61 242.61 0 0 1 -52.77 43s-21.27 13.29-23.22 13.84-7.88 2.67-11.39-6-5.39-14.22-5.44-14.38-5.1-19.82-3.57-19.26 7.83 11.14 8.7 12.61 23.18 11.62 26.12 9.45 12-9.9 15-19.92 4.71-15.76 4.85-19.31 5.35-20.58 5-22.05-1.28-4.82-.16-5.78 4.61-2.4 5.11-2.77 4.95-4.51 5.36-9.52c0 0 2.93-1.47 2.4-4.16s-2.12.33-4 .91-7.79.84-7.13.35 2.93-3.91 1.87-4.89-4.21.49-5.59 2.1-5.51 4.13-9.61 10.77c0 0-.66 2.84-2 2.55 0 0-2-.88-2.69 0s-3.84 6.77-4.5 8z" fill="#e9e9e9"/><path d="m496.24 404.25c22.9 66.39.66 75.57 4.33 112.85.87 8.87 3.05 37.43 4.23 46.26 2.67 19.86 1.27 43-1.65 62.79a2.07 2.07 0 0 0 2.05 2.37h43.69a4.9 4.9 0 0 0 4.6-3.2 2.16 2.16 0 0 0 -.74-2.47c-18.52-14-1.71-74.93 2.09-108.67 8.57-76.1 3.16-78.37-14.45-148.07" fill="#fff"/><path d="m457.69 177.09c-1 4.57-2.14 9.09-3.12 13.66-.13.63.83.9 1 .27 1-4.57 2.14-9.1 3.11-13.66.14-.63-.82-.9-1-.27z"/><path d="m477.08 186.25c-.81 3-1.5 6-2.09 9.07-.12.62.85.89 1 .26q.87-4.58 2.09-9.06a.5.5 0 0 0 -1-.27z"/><path d="m495.76 404.38c6.87 20 12.16 41.21 9.94 62.54-1.35 13.07-5.53 25.69-6 38.88-.26 7.51.72 15 1.35 22.47.82 9.63 1.59 19.27 2.56 28.88 1.16 11.52 2.32 22.85 2.06 34.46-.16 6.93-.61 13.84-1.3 20.73-.35 3.44-.75 6.88-1.22 10.3-.24 1.81-1.29 4.59.56 5.9 1.05.74 2.74.48 4 .48h38.53a14 14 0 0 0 4.47-.31 5.21 5.21 0 0 0 3.31-3.26c.51-1.86-.75-2.75-2-3.9a19.65 19.65 0 0 1 -4.91-8.21c-2.72-8.07-2.6-17.05-2.16-25.46a302.87 302.87 0 0 1 3.77-31.88c1.62-10.09 3.47-20.15 5-30.25 1.76-11.36 2.89-22.83 3.91-34.28 1.62-18.13 2.63-36.44.15-54.55-2.43-17.72-7.6-35-12.13-52.25q-2.45-9.33-4.82-18.67a.5.5 0 0 0 -1 .27c5 19.75 10.93 39.36 15 59.34a191.54 191.54 0 0 1 3.09 48 554.8 554.8 0 0 1 -7.37 65.18c-3.32 19.46-7.43 39.41-6.83 59.25.21 6.91 1 14.54 4.62 20.58a16.71 16.71 0 0 0 2.37 3.11c.42.43 1 .79 1.36 1.24 2.25 2.58-.63 4.88-3.22 5-1.11.08-2.26 0-3.37 0h-38.1a10.5 10.5 0 0 1 -1.86 0c-2.62-.48-1.55-4.29-1.32-6 .86-6.47 1.52-13 1.94-19.5a208.9 208.9 0 0 0 -1-39.77c-1.07-8.55-1.7-17.15-2.43-25.73-.66-7.83-1.56-15.67-2-23.51-.77-13.36 2.67-25.94 4.87-39 2.91-17.3 1.19-34.46-3.17-51.39-1.65-6.41-3.62-12.74-5.77-19-.21-.6-1.17-.34-1 .27z"/><path d="m472.41 185s1.84 3.5 4.21 5c0 0 .72-2.82.77-3s.5-.79-1.09-.81a11.41 11.41 0 0 1 -3.89-1.19z"/><path d="m454.27 191.38a51.13 51.13 0 0 1 13.73 1.94 48.25 48.25 0 0 1 6.69 2.45c1 .44 2.15.71 2.39 2a17.69 17.69 0 0 1 -.2 2.59.5.5 0 0 0 1 0c0-1.42.72-3-.37-4.18-1.38-1.43-4.37-2.16-6.22-2.82a52 52 0 0 0 -17-2.94.5.5 0 0 0 0 1z"/><path d="m452.75 198.74a46.94 46.94 0 0 1 2-7.73c.22-.61-.75-.87-1-.27a46.94 46.94 0 0 0 -2 7.73c-.11.63.85.9 1 .27z"/><path d="m477.4 200.82a134.72 134.72 0 0 0 22.9.32c6.9-.51 14.7-1.67 19.86 4.06 2.49 2.76 4.2 6.3 6 9.51s3.74 6.71 5.54 10.1q5.45 10.19 10.3 20.62c.27.58 1.13.07.86-.51q-5.28-11.31-11.18-22.31-3-5.49-6.07-10.9c-1.69-2.93-3.35-6.08-5.9-8.38-4.84-4.33-11.63-3.82-17.71-3.33a138.89 138.89 0 0 1 -24.64-.18c-.64-.06-.63.94 0 1z"/><path d="m537.55 234.49 8.78-16.56c1.34-2.53 2.48-5.54 4.16-7.85 1.5-2.06 2.51-2 4.63-1.55 1.06.25 2.12.5 3.17.81 5 1.49 8 4.73 7.71 10.24a73 73 0 0 1 -1.55 8.9c-.58 3.2-1.12 6.4-1.71 9.59-1.87 10.23-3.65 21.49-9.93 30.09-3 4.18-7.42 7.81-12.59 8.89-5.61 1.17-11.53-.94-16.19-4-4.43-2.91-8-7.15-11.1-11.37s-6.13-8.82-7.58-13.89a.5.5 0 0 0 -1 .26c1.41 4.93 4.25 9.41 7.23 13.52a53.24 53.24 0 0 0 10 11c4.41 3.41 10 5.92 15.7 5.82 5.25-.09 10-2.77 13.62-6.45 8.58-8.72 10.67-22.06 12.78-33.59.64-3.51 1.23-7 1.88-10.54.55-3 1.47-6 1.43-9.11a9.77 9.77 0 0 0 -6.09-9.47 31.24 31.24 0 0 0 -7.59-2.11c-2.89-.4-3.43 1.93-4.64 4.22l-12 22.67c-.3.56.56 1.07.86.5z"/><g stroke="#000" stroke-miterlimit="10"><path d="m483.34 153.24a94.73 94.73 0 0 1 1.66 13.52 47.08 47.08 0 0 0 1.09 5 2.05 2.05 0 0 1 -1.32 2.44c0 .34-.05.67-.1 1-.62 5-.77 14.65-12.62 9.71" fill="none"/><path d="m476.79 165.48s-2.28-1.83-3.64.18-.19 5.67 2.84 6c0 0-6.26 7.73-8.88 8.48s-7.38.06-9.31 0c-1.54 0-4.49-7-5.8-12a8.38 8.38 0 0 0 -2.85-4.51 3.4 3.4 0 0 1 -1.41-2.94c.18-3.07 4.9-3.88 4.9-3.88s-7.34 3.32-5.61-1.6 6.16-5.21 9.59-4.66c0 0-8.72.7-5.62-2.88s8.35-1.71 10.28-.3a14.29 14.29 0 0 1 9.72-5.47c6.56-.78 6.28 2.68 6.28 2.68s6.41-2.56 9.8.84-2.29 10.85-7.18 11.2a2.8 2.8 0 0 1 -1 3.56c-2.14 1.54-2.11 5.3-2.11 5.3z"/><path d="m485.87 152-3.11-1.68c.41.38 1.47 8.38 1.47 8.38s3.64-1.64 3.95-4-2.11-2.65-2.31-2.7z"/></g><path d="m568.5 192.14a32.83 32.83 0 0 0 -14.08 15.35c-.26.58.6 1.09.86.5a32 32 0 0 1 13.72-14.99c.56-.31 0-1.17-.51-.86z"/><path d="m578.39 195.16a16.33 16.33 0 0 1 -7.52 2.57c-.64.05-.64 1.05 0 1a17.38 17.38 0 0 0 8-2.7c.54-.35 0-1.21-.5-.87z"/><path d="m576.62 200.42a10.26 10.26 0 0 1 -2.18.88.5.5 0 0 0 .26 1 11.06 11.06 0 0 0 2.42-1c.57-.31.06-1.17-.5-.86z"/><path d="m575.79 204.14a6.17 6.17 0 0 1 -3.18 1.27c-.64.07-.64 1.07 0 1a7.19 7.19 0 0 0 3.69-1.41c.51-.38 0-1.25-.51-.86z"/><path d="m573.21 208.68a12.26 12.26 0 0 1 -5.09 2.43 6.32 6.32 0 0 0 -3.24 1.62c-.47.45.24 1.16.7.71 1.35-1.31 3.18-1.32 4.85-2a13.08 13.08 0 0 0 3.49-2.1c.49-.4-.22-1.11-.71-.7z"/><path d="m452.27 198.1c-7.18 0-14.37 0-21.55-.15-3.55-.06-7.22-.18-10.49 1.43s-5.6 5.08-6.93 8.54c-2.94 7.64-2.41 17-1.74 25a125.78 125.78 0 0 0 3.75 19.9c1.76 7 3.56 14.69 7.26 21a.5.5 0 0 0 .86-.51c-3-5.12-4.6-11.23-6.16-16.93a166.7 166.7 0 0 1 -4.27-19.94 78 78 0 0 1 -.2-22.52c.67-4.31 2.19-8.94 5.47-12s7.76-3.07 12-3c7.35.13 14.71.15 22.06.15a.5.5 0 0 0 0-1z"/><path d="m422.67 249.92c.54 30.48-2.34 60.66-7.36 90.7-2.53 15.17-5.41 30.29-8.17 45.42-1.31 7.18-3.21 14.56-3.38 21.88-.13 5.75 1.55 11.37 6.43 14.79 5.06 3.55 11.69 4.09 17.68 4a91.41 91.41 0 0 0 23.36-4 253.42 253.42 0 0 0 43.52-17.1c12.89-6.53 25-14.69 35-25.18a89.63 89.63 0 0 0 12.5-16.43c3-5 7.49-12.11 5.75-18.19-.92-3.21-3-6.14-4.7-9-1.85-3.14-3.74-6.26-5.63-9.38-3.9-6.44-7.8-12.89-11.47-19.47-7.27-13-13.91-26.84-16.58-41.63a73.56 73.56 0 0 1 -1.14-11.17c0-.64-1-.64-1 0 .72 28.14 17.48 53.13 31.52 76.41 1.72 2.85 3.43 5.7 5.1 8.58 2.38 4.09 4.12 7.61 2.55 12.41-2.15 6.53-6.07 12.77-10.13 18.26-8.26 11.18-19.09 20.26-30.89 27.5-13 8-27.22 13.86-41.57 19a161.39 161.39 0 0 1 -22.76 6.72c-7.45 1.5-15.63 2.45-23.15.82s-12.72-6.46-13.33-14.29c-.54-7 1.46-14.24 2.69-21.07 2.64-14.57 5.42-29.11 7.93-43.71 5.46-31.77 8.8-63.66 8.23-95.93a.5.5 0 0 0 -1 0z"/><path d="m448.07 423c1 3.65 1.55 7.4.15 11s-4 6.82-6.42 9.74c-5.36 6.56-11.72 12.17-17.92 17.9-12.75 11.78-23.62 25-31.09 40.75-7.2 15.21-17.74 29.58-31 40.12a77.48 77.48 0 0 1 -10.69 7.06c-2.6 1.45-5.35 3-7.07 5.54-1.89 2.76-1.69 5.92-.66 9 1.21 3.61 2.76 7.16 4.3 10.65 3.07 7 6.82 13.84 12.43 19.1 1.66 1.55 3.86 3.88 6.37 3 3.09-1.07 3.26-4.73 3.52-7.44.57-5.85 5.64-10.47 9.78-14.16a178.33 178.33 0 0 1 15.47-11.89c11.6-8.24 22.71-17.17 33.58-26.33 12.12-10.21 24.85-20 35.79-31.51a102.09 102.09 0 0 0 23.95-41.12c4.75-15.56 6.7-31.87 7.64-48.06q.34-6.06.52-12.12a.5.5 0 0 0 -1 0c-1 31.67-4.23 66.31-24.47 92.14-10 12.75-22.8 22.74-35.08 33.14-11.17 9.49-22.37 18.84-34.08 27.65-9.35 7-19.77 13.24-27.68 22a26.2 26.2 0 0 0 -4.22 5.91c-1.22 2.52-.88 5-1.57 7.68-.5 1.9-1.41 3-3.37 3-1.64-.05-2.36-.73-3.55-1.77a37.45 37.45 0 0 1 -4.07-4.19 53.94 53.94 0 0 1 -6.52-10.1c-1.81-3.51-3.35-7.14-4.82-10.8-1.62-4-4.15-8.77-1.56-12.93 2-3.13 5.68-4.73 8.76-6.49a73.87 73.87 0 0 0 9.35-6.44 105.3 105.3 0 0 0 16.58-17.18 110.56 110.56 0 0 0 12.91-20.1 134.07 134.07 0 0 1 12.67-21.92 144.37 144.37 0 0 1 17.1-19.12c5.95-5.6 12.17-10.93 17.65-17 3.95-4.38 9.05-9.84 10.13-15.87a20.93 20.93 0 0 0 -.84-9.06.5.5 0 0 0 -1 .26z"/><path d="m455.17 430a3.69 3.69 0 0 1 2.9-.85c.16 0 .23-.22.07-.24a4 4 0 0 0 -3.15.91c-.12.11.06.28.18.18z"/><path d="m456 433.88 2.17-.44c.15 0 .09-.27-.07-.24l-2.17.44c-.16 0-.09.27.07.24z"/><path d="m519.8 426.08a13.2 13.2 0 0 1 4.77-.82.13.13 0 0 0 0-.25 13.24 13.24 0 0 0 -4.83.83c-.15.05-.09.29.06.24z"/><path d="m522.5 430.89a3.47 3.47 0 0 1 2.07-.87c.16 0 .16-.26 0-.25a3.76 3.76 0 0 0 -2.25.94c-.12.11.06.28.18.18z"/><path d="m365.9 540.66a40 40 0 0 1 18.92 29.2c0 .16.27.16.25 0a40.26 40.26 0 0 0 -19-29.41c-.14-.09-.26.13-.13.21z"/><path d="m344.43 557.46c4.48-2.28 8.7 3.06 11 6.21a49 49 0 0 1 5.15 9 101.93 101.93 0 0 1 3.94 10.59c1.26 3.93 3.22 8.42 2.55 12.59 0 .15.22.22.24.06.71-4.4-1.35-9-2.67-13.11a89.53 89.53 0 0 0 -4.88-12.43c-2.29-4.58-8.73-16.55-15.5-13.11-.14.08 0 .29.13.22z"/><path d="m507.39 598.09c11.37-.16 22.9.19 34.21-1.16.16 0 .16-.27 0-.25-11.31 1.35-22.84 1-34.21 1.16-.16 0-.16.26 0 .25z"/><path d="m449.44 427.08s36.8.87 46.09-7.68l.56-10.82v-1.9s1.58-3.08-2.16-1.25-30.64 13.07-38 15.27l-6.21 1.88s-1.13.09-.79 1.72" stroke="#000" stroke-miterlimit="10"/><path d="m501.11 420.26s30.9-7.33 46.79-23.92l-5.9-23.95-1.09-4.28s.37-2.92-2.38.84-13.53 17.05-23.41 23.64l-9.25 6.22-8 4.56-1 .88s-.82-.42-.11 1.72" stroke="#000" stroke-miterlimit="10"/><path d="m513.2 335.49c4.38-8.26 4.6-17.67 4.68-26.81a.13.13 0 1 0 -.25 0c-.08 9.09-.28 18.46-4.65 26.69-.07.14.14.27.22.12z"/><path d="m413.49 242.37s4.76 15 7.26 15.2 2.25-5.37 2.25-5.37.2 13.92.17 15.55.53 8.07-1.26 3.71-4.91-14.22-5.18-15.2"/><path d="m505.14 248.85s1.93 15.5 4.78 21.48c0 0-1.81-11.86-1.86-12.88s-.4-3.3-1-3.87"/><path d="m454.93 230c5.75 36.2 2.72 72.85-.38 109.14-.87 10.27-1.74 20.54-2.42 30.83 0 .16.24.16.25 0 2.41-36.51 7.36-73 5.79-109.67a264 264 0 0 0 -3-30.36c0-.16-.26-.09-.24.06z"/><path d="m454.65 227.36 1-1a.12.12 0 0 0 -.18-.17l-1 1a.12.12 0 1 0 .17.17z"/><path d="m521.59 206.46 22.12-16.29 10.85-8c3.24-2.38 6.58-4.85 10.47-6 8.38-2.52 16.7 2.94 22.88 8.1a61.73 61.73 0 0 1 13.63 16.14 61 61 0 0 1 7.46 20.16c.75 4.26 1.41 9.11-.49 13.17-1.74 3.73-5 6.91-7.78 9.91-10.7 11.69-23.2 21.57-36.23 30.52-7.23 5-14.65 9.68-22.11 14.3-3.69 2.29-7.33 4.74-11.16 6.79-4.38 2.34-9.77 3.34-12.53-1.8-.3-.57-1.17-.06-.86.5 3.65 6.83 11 4 16.22.81q11.46-6.91 22.7-14.21c14.52-9.48 28.65-19.78 40.84-32.17 3.11-3.15 6.11-6.41 8.89-9.85 2.3-2.85 3.92-5.79 4.19-9.5.54-7.46-1.9-15.57-4.82-22.34a63.12 63.12 0 0 0 -12.75-19c-5.18-5.29-11.75-10.57-19-12.53-9.81-2.64-17.49 4.29-24.86 9.71l-28.17 20.72c-.51.38 0 1.25.51.86z"/><path d="m571.61 210.37s1.29 1.75-.74 5.26-9.65 32.71-9.65 32.71 3.22-16.94 3.39-17.9 1.92-9.71 2-10.54a29.07 29.07 0 0 0 -.52-4.39c-.2-1.47-1.42-2.75.27-3.31s2.6-.77 2.9-.86 2.35-.97 2.35-.97z"/><path d="m508.23 261.48s6 19 20.85 22.81 25.58-14 27.24-21.08c0 0-8.46 19.72-25.37 13.69-11.86-4.23-16.79-12.8-16.79-12.8l-5-7.11-2.28-2.27"/><path d="m474.9 167.37c.73 0 1.15 1.1 1.33 1.68 0 .15.29.09.24-.07-.23-.72-.69-1.81-1.57-1.86-.16 0-.16.24 0 .25z"/><path d="m475.42 168.48a.46.46 0 0 1 .62 0c.12.11.3-.07.17-.17a.73.73 0 0 0 -.92-.08.13.13 0 0 0 .13.22z"/><g fill="#8f8fef"><circle cx="629.38" cy="234.5" r="4.51"/><circle cx="646.25" cy="170.39" r=".65"/><circle cx="704.91" cy="191.15" r="3.59"/></g><g fill="#60d8d2"><circle cx="654.42" cy="191.15" r="3.59"/><circle cx="743.12" cy="191.15" r="1.51"/><circle cx="705.02" cy="269.85" r="3.7"/></g><g fill="#ffa766"><circle cx="688.73" cy="166.25" r="2.18"/><circle cx="759.49" cy="239.01" r="2.82"/><circle cx="663.33" cy="269.55" r="3.4"/></g><g fill="#ff6679"><circle cx="625.82" cy="187.96" r="2.92"/><circle cx="630.42" cy="259.59" r="1.04"/><circle cx="720.89" cy="222.96" r="1.87"/><circle cx="735.23" cy="267.37" r="1.22"/><circle cx="736.68" cy="161.4" r="2.67"/></g><rect fill="#8f8fef" height="47.65" rx="3.17" transform="matrix(.8660254 .5 -.5 .8660254 205.72 -309.05)" width="47.65" x="655.73" y="205.53"/><path d="m704.68 511.36 15.87-15.87a4.23 4.23 0 0 0 1.09-4.06l-5.81-21.68a4.22 4.22 0 0 0 -3-3l-21.66-5.75a4.19 4.19 0 0 0 -4.06 1.09l-15.87 15.87a4.23 4.23 0 0 0 -1.09 4.06l5.85 21.65a4.2 4.2 0 0 0 3 3l21.68 5.81a4.21 4.21 0 0 0 4-1.12z" fill="#ff6679"/><path d="m267.81 465.89a13 13 0 0 1 -1.73 5.35v10.76a19.13 19.13 0 0 1 6.33.66c11.93 2.75 15 3.15 17.1 7.84s11.69 28.72 11.69 28.72l2.29 5.74s0 1.58 1.61-1.11 5.13-7.54 5.58-8.16 3.54-5.14 3.54-5.14 2.8-6.39 3.4-7.12a3.92 3.92 0 0 1 1.72-1.48c.72-.23 1.36.18 1.51-1.9s3-9 4-10.54 5.11-7.55 7-7.12 0 6.25 0 6.08 3.26-.51 4.46-1.75 5.31-6.13 5.75-3.47a7.46 7.46 0 0 1 -1 4.86 14.71 14.71 0 0 1 -.17 6c-.81 2.44-3.32 5.8-4.94 6.76s-5.69 3.65-5.21 6.76a25.35 25.35 0 0 1 .13 8.35c-.4 3-2.79 14.35-4.78 22h49.09v-72z" fill="#e9e9e9"/><path d="m241.26 464.55c-1 4.57-2.14 9.09-3.12 13.66-.13.63.83.9 1 .27 1-4.57 2.14-9.1 3.12-13.67.13-.62-.83-.89-1-.26z"/><path d="m260.65 473.71c-.8 3-1.5 6-2.08 9.06-.12.63.84.9 1 .27q.87-4.57 2.09-9.06a.5.5 0 0 0 -1-.27z"/><path d="m277.54 686.4c7.43 19.61 15.71 40.45 14.67 61.8-.26 5.34-1.08 10.63-1.61 15.95-.51 5.15-.65 10.34-.68 15.52a316.08 316.08 0 0 0 1.57 32c1 10.51 2.67 20.94 3.61 31.46a205.17 205.17 0 0 1 .55 32.32c-.27 3.92-1.28 7.9 1.18 11.32a9.17 9.17 0 0 0 7.29 3.74c3.33.12 6.67 0 10 0h14.48a10.8 10.8 0 0 0 3.63-.31c2.07-.71 4.45-3.35 3-5.6-.76-1.19-2.38-2.07-3.36-3.11a19.92 19.92 0 0 1 -2.95-4.11 25.76 25.76 0 0 1 -2.78-9.94c-.68-7.67.76-15.45 2.28-22.94 1.84-9 4.07-18 5.71-27.05 1.72-9.5 2.62-19.12 3.58-28.72 1.39-13.75 2.7-27.63 2.31-41.47-.66-23.39-8.36-45.86-14.27-68.29-1.2-4.53-2.37-9.08-3.52-13.62a.5.5 0 0 0 -1 .26c3.71 14.67 7.82 29.24 11.62 43.88 2.49 9.58 4.71 19.24 5.61 29.11 1.06 11.48.51 23.06-.38 34.54-1.4 18.12-3.14 36.31-7 54.1-1.79 8.33-3.86 16.62-5.16 25-1 6.33-1.61 13-.23 19.3a23.55 23.55 0 0 0 3.12 7.69 21.92 21.92 0 0 0 2.48 3.12 22.76 22.76 0 0 0 1.68 1.57c1.47 1.23 1.81 3.24.14 4.54-2.52 2-7.89 1-10.84 1h-14.74c-1.12 0-2.24 0-3.36 0a8.1 8.1 0 0 1 -8-7.41 58.81 58.81 0 0 1 .52-7.13c.18-2.73.29-5.47.34-8.2.1-5.15 0-10.29-.31-15.43-.6-10.45-2.1-20.78-3.31-31.17-2.36-20.24-3.61-40.85-1.22-61.15a102.09 102.09 0 0 0 -.34-29.62 178.24 178.24 0 0 0 -8.12-29.19c-1.67-4.71-3.44-9.37-5.21-14-.23-.6-1.19-.34-1 .26z"/><path d="m256 472.5s1.83 3.5 4.21 5c0 0 .71-2.82.76-3s.5-.79-1.08-.81a11.56 11.56 0 0 1 -3.89-1.19z"/><path d="m234.32 480.2a47.43 47.43 0 0 1 2-7.73c.22-.61-.75-.87-1-.27a46.94 46.94 0 0 0 -2 7.73c-.11.63.86.9 1 .27z"/><path d="m266.91 440.7a91.94 91.94 0 0 1 1.62 13.52 47.05 47.05 0 0 0 1.09 5 2.06 2.06 0 0 1 -1.32 2.45c0 .33-.05.67-.09 1-.63 5-.78 14.65-12.62 9.71" fill="none" stroke="#000" stroke-miterlimit="10"/><path d="m268.15 438.74-1.81-1c.41.38 1.46 8.49 1.46 8.49s3.65-1.64 3.95-4a2.26 2.26 0 0 0 -1.71-2.58 10.19 10.19 0 0 1 -1.89-.91z" stroke="#000" stroke-miterlimit="10"/><path d="m329.43 483.2a32.8 32.8 0 0 0 -9.31 18.63c-.09.63.87.9 1 .27a32 32 0 0 1 9.06-18.2c.45-.45-.26-1.16-.71-.7z"/><path d="m339.77 483.38a16.18 16.18 0 0 1 -6.53 4.54c-.6.23-.34 1.19.27 1a17.17 17.17 0 0 0 7-4.8c.43-.48-.28-1.19-.7-.71z"/><path d="m339.51 488.92a9.62 9.62 0 0 1 -1.85 1.45c-.55.33-.05 1.2.5.86a11 11 0 0 0 2.06-1.6c.46-.45-.25-1.16-.71-.71z"/><path d="m339.67 492.82a6 6 0 0 1 -2.64 2c-.59.24-.33 1.2.27 1a7.3 7.3 0 0 0 3.23-2.47c.39-.52-.48-1-.86-.51z"/><path d="m338.51 497.8a11.61 11.61 0 0 1 -3.32 3.23 20.48 20.48 0 0 0 -2.48 1.54 9.88 9.88 0 0 0 -2.61 3.66c-.26.59.6 1.09.87.51a8.28 8.28 0 0 1 3.61-4.22 13.6 13.6 0 0 0 4.79-4.22c.37-.53-.5-1-.86-.5z"/><path d="m224.66 707.19a3.67 3.67 0 0 1 2.9-.85c.16 0 .23-.22.07-.24a4 4 0 0 0 -3.15.91c-.12.11.06.28.18.18z"/><path d="m225.44 711.05 2.18-.44c.15 0 .09-.27-.07-.24l-2.17.44c-.16 0-.09.27.06.24z"/><path d="m301.38 707.53a13.55 13.55 0 0 1 4.76-.82c.16 0 .16-.24 0-.25a13.75 13.75 0 0 0 -4.83.83c-.15.06-.08.3.07.24z"/><path d="m304.07 712.35a3.41 3.41 0 0 1 2.07-.87c.16 0 .16-.26 0-.25a3.7 3.7 0 0 0 -2.25.94c-.12.11.06.28.18.18z"/><path d="m259.49 481.43c6.32 1.08 12.64 2.14 19 3.24 3.13.55 6.24 1.18 8.57 3.53 2 2 3.1 4.84 4.14 7.43 4.9 12.15 9.69 24.35 14.54 36.52.23.59 1.2.34 1-.26-5.13-12.88-9.88-26-15.43-38.7-2.23-5.11-5.31-8.08-10.86-9.19-6.83-1.36-13.75-2.36-20.62-3.53-.63-.11-.9.86-.26 1z"/><path d="m304.4 526.74c2.11-4.81 5.56-8.73 8.53-13a33.7 33.7 0 0 0 3.43-6 25.12 25.12 0 0 1 1.41-3.34c1.44-2.37 3.83-2.24 6.16-1.53 3.3 1 5.9 2.79 6.54 6.35.55 3.07-.05 6.46-.49 9.51a144.61 144.61 0 0 1 -3.82 17.44c-2.94 10.74-7.74 22.69-18.41 27.87-4.13 2-8.73 2.58-12.86.35a23 23 0 0 1 -7.61-7.32 65.86 65.86 0 0 1 -8.66-18.85c-.18-.62-1.15-.35-1 .26 3.7 12.27 12.57 33.44 28.93 27.14 12-4.6 17.4-17.76 20.54-29.18a136.36 136.36 0 0 0 4.2-20.39c.57-5 .75-10.47-4.4-13.09-2.17-1.09-5.28-2.22-7.68-1.24-2.57 1.05-3.08 4.12-4.13 6.36-3.07 6.54-8.68 11.48-11.58 18.13-.25.58.61 1.09.86.5z"/><path d="m267.8 446.08s-2.86 4.51-5.51 6.33a2.94 2.94 0 0 0 -1.29 2.19v.53a2.61 2.61 0 0 0 -3.36-1.62c-1.59.54-2.39 4-.58 6a9.13 9.13 0 0 1 2.12 5.49c.63 9.46 3.48 18.62 5.66 27.8 1.92 8.16.84 17.61-5.21 23.85-2.94 3-6.27 5.78-8.38 9.43-2.92 5.07-2.66 10.88-6.52 15.5-4.38 5.25-11.19 7.56-17.77 8.46-17.6 2.4-33.61-9.56-16.53-38.24a14.19 14.19 0 0 0 .93-11.88c-.72-2.11-.44-5.2 2.56-9.61 7.39-10.86 18.89-19.31 19.2-34.13.24-11.59 5.55-18.41 11.68-20.22 1.46-.43 2.95-.78 4.37-1.32 2.75-1 8.7-2.08 17.2 3.05" stroke="#000" stroke-miterlimit="10"/><path d="m211.48 689.56c34.49 4.26 70.54.89 100.87-17.24a123.91 123.91 0 0 0 11.35-7.66c2.72-2.06 6.14-4.26 7.37-7.61s-.46-7.07-1.76-10.24c-.75-1.82-1.53-3.63-2.39-5.41-4.07-8.48-8.83-16.57-12.72-25.17-4.07-9-8.3-17.88-12.61-26.76s-8.71-18-10.73-27.73c-.13-.63-1.1-.36-1 .27 3.31 15.87 12.26 30.18 19 44.74 4.82 10.41 9.45 20.78 14.95 30.85a94.41 94.41 0 0 1 4.69 9.91 29.74 29.74 0 0 1 1.72 4.85c.75 3.39-.51 5.93-3 8.17a87.59 87.59 0 0 1 -10.88 8.08 130.46 130.46 0 0 1 -46.75 18.77c-19.15 3.72-38.84 3.56-58.15 1.18-.63-.08-.63.92 0 1z"/><path d="m224 519.18c.09 19.75-4.12 39.51-8.73 58.62-5.15 21.31-11.48 42.32-18.17 63.18-3.16 9.86-6.42 19.68-9.67 29.5-.21.62.76.88 1 .27 13.11-39.62 26.79-79.61 33.7-120.87a180.81 180.81 0 0 0 2.91-30.7.5.5 0 0 0 -1 0z"/><path d="m224 711.54a61.58 61.58 0 0 0 -20.32-30.77c-5.64-4.54-11.93-8.18-18-12.13a142.47 142.47 0 0 1 -17.51-13.64 92.67 92.67 0 0 1 -15.17-17.17 47.81 47.81 0 0 1 -5-9.21c-1.19-3.1-1.95-6.64-4-9.32-3-3.95-7.6-2.3-11 .14-5 3.54-9.52 8.21-13.76 12.58a68.83 68.83 0 0 0 -6.39 7.47c-1 1.41-3.25 3.81-2.06 5.7 1.37 2.15 4.15.42 5.89 0 4.62-1 8.07 2.13 10.07 5.93 3.08 5.85 5.8 11.83 9.14 17.55q5.35 9.19 11.54 17.88a250.78 250.78 0 0 0 27.57 32.69c9.46 9.41 20.13 19.07 33 23.36 6.45 2.16 13.49 2.67 20 .39s11.8-7 16.06-12.33c9.72-12.1 16.53-27 21.27-41.68.2-.61-.77-.87-1-.26a143.33 143.33 0 0 1 -17.78 36.85c-7.46 10.89-18 19.67-32 17.6-13.07-1.93-24.13-10.87-33.55-19.54a246.89 246.89 0 0 1 -48.59-63.15c-1.39-2.61-2.68-5.24-3.92-7.92a17.75 17.75 0 0 0 -4.09-6.18 9.27 9.27 0 0 0 -5.52-2.33c-1.53-.09-2.63.49-4.08.72-1 .16-3.39 2.16-3.31-1.27 0-1 1.58-2.7 2.17-3.51 4-5.44 9-10 13.9-14.59 3.38-3.1 10.5-10.95 15.19-6 2.18 2.28 2.92 5.8 4 8.7a45.07 45.07 0 0 0 4.44 8.76 84.94 84.94 0 0 0 11.81 14.55 138.76 138.76 0 0 0 16.27 14c6.11 4.48 12.72 8.22 18.93 12.54 12 8.3 20.83 19.82 24.89 33.88a.5.5 0 0 0 1-.26z"/><path d="m212.62 538.13a38.87 38.87 0 0 0 4.56 31.75c.35.54 1.22 0 .87-.5a37.87 37.87 0 0 1 -4.47-31 .5.5 0 0 0 -1-.26z"/><path d="m242.78 540.12q-3.3 41.91-7.8 83.71c0 .15.23.15.25 0q4.5-41.8 7.8-83.71c0-.16-.23-.16-.25 0z"/><path d="m234.41 629.45h.45c.1.11.28-.06.17-.18a.51.51 0 0 0 -.79 0c-.11.12.07.3.17.18z"/><path d="m234 635.34h.65a.13.13 0 0 0 0-.25h-.65a.13.13 0 0 0 0 .25z"/><path d="m233.39 642.16 1.31-1c.12-.09 0-.31-.13-.21l-1.3 1c-.13.09 0 .31.12.21z"/><path d="m287.44 590a76 76 0 0 1 -9.31 30.33c-.08.14.13.27.21.13a76.45 76.45 0 0 0 9.35-30.46c0-.16-.24-.16-.25 0z"/><path d="m297.25 850.32c3.79 0 7.58.07 11.36.32 2.25.14 4.94 0 7.05.74 2.27.79 3.73 2.8 5.07 4.68a.12.12 0 0 0 .27-.06 5.06 5.06 0 0 1 4.18-5c.16 0 .09-.27-.07-.24-2.38.48-3.24 1.89-4.23 3.91-.28.55.14.68-.31.7 0 0-.91-1.19-.89-1.18a10.17 10.17 0 0 0 -2.92-2.59c-2.54-1.37-6.11-1.07-8.9-1.24-3.52-.22-7-.29-10.57-.27a.13.13 0 0 0 0 .25z"/><path d="m160.33 648.2c-2.36 2.64-4.68 5.33-7.09 7.92-2.75 2.94-6.16 5.6-10.42 4.67a.13.13 0 0 0 -.15.18 9.65 9.65 0 0 1 -3.57 11.9c-.14.09 0 .31.12.22a9.82 9.82 0 0 0 4.19-5.76 10 10 0 0 0 .24-3.92c-.12-.88-.76-1.67-.12-2.21a15.38 15.38 0 0 1 2.29 0 9.36 9.36 0 0 0 2.26-.68 13.46 13.46 0 0 0 3.49-2.35c3.25-2.91 6-6.5 8.93-9.76.11-.12-.07-.3-.17-.18z"/><path d="m278.67 540.08s1 26.83 16.65 37.8c0 0-3.7-11-4.07-12.34s-.77-4.35-2-5.17-5.46-8.29-5.46-8.29-4.79-9.52-5.12-12z" stroke="#000" stroke-miterlimit="10"/><path d="m258.13 455.81c.58-.12 1 .78 1.19 1.18a3.82 3.82 0 0 1 .28 1.34.13.13 0 0 0 .25 0 3.92 3.92 0 0 0 -.59-2c-.28-.42-.64-.88-1.2-.76-.15 0-.09.27.07.24z"/><path d="m258.75 457.35a.72.72 0 0 1 .75.09c.13.1.25-.12.13-.21a.89.89 0 0 0 -1-.09c-.15.07 0 .28.12.21z"/><path d="m212.38 557s1 4 4.53 2.92 4.57-9.43 4.57-9.43l-3 15.72s-.43 1.88-.81 3c-.12.35-1.17-1.36-1.74-2.47a32.66 32.66 0 0 1 -2.52-6.71" stroke="#000" stroke-miterlimit="10"/><path d="m220.43 703.16s25.16 3.8 38.62.83l4.95-12.59s2.23-3.33-.73-2.43c-2.37.73-23.12 1.86-26.37 1.81l-7.5-.19-12.4-1.09-4.39-.3s-1.58-.76-.16 1.07 6 8.76 6 8.76z"/><path d="m283.73 702.74s32.86-2.58 44.19-13.8l-5.61-21.35s.13-2.57-1.41-1.48-15.09 10.22-24.71 13.8l-11.19 4.38-5.27 1.26s-2.32 0-1.31 1.76 3.58 9.19 3.58 9.19"/><path d="m112.19 642.25c10.6-5.25 18.46-14.22 26.05-23.06.11-.12-.07-.3-.18-.17-7.57 8.81-15.41 17.77-26 23-.14.07 0 .28.13.21z"/><g fill="none" stroke="#000" stroke-miterlimit="10"><path d="m326.02 537.91h49.09"/><path d="m307.48 507.87v-41.98"/><path d="m307.48 512.58v-1.85"/><path d="m307.48 516.49v-1.85"/><path d="m307.48 520.4v-1.85"/></g><path d="m335.45 465.89h14.17v14.17h-14.17z" fill="#f4f4f4"/><g fill="none" stroke="#000" stroke-miterlimit="10"><path d="m335.45 465.89h14.17v14.17h-14.17z"/><path d="m375.11 537.91v-72h-107.3a13 13 0 0 1 -1.73 5.35v10.74"/></g></svg>