<?xml version="1.0" encoding="UTF-8" standalone="no"?>
<!DOCTYPE svg PUBLIC "-//W3C//DTD SVG 1.1//EN" "http://www.w3.org/Graphics/SVG/1.1/DTD/svg11.dtd">
<svg width="100%" height="100%" viewBox="0 0 428 263" version="1.1" xmlns="http://www.w3.org/2000/svg" xmlns:xlink="http://www.w3.org/1999/xlink" xml:space="preserve" xmlns:serif="http://www.serif.com/" style="fill-rule:evenodd;clip-rule:evenodd;stroke-linecap:round;stroke-linejoin:round;stroke-miterlimit:1.5;">
    <g transform="matrix(1,0,0,1,-158.737,-649.993)">
        <path d="M218.029,911.831L371.872,911.831L371.872,704.397L314.338,755.322L217.923,755.322L218.029,911.831Z" style="fill:rgb(233,233,233);stroke:black;stroke-width:1px;"/>
    </g>
    <g transform="matrix(1,0,0,1,-157.737,-649.993)">
        <path d="M371.872,911.831L527.458,911.831L527.458,755.649L431.356,754.939L371.872,704.397" style="fill:rgb(204,204,204);stroke:black;stroke-width:1px;"/>
    </g>
    <g transform="matrix(1,0,0,1,-158.737,-649.993)">
        <path d="M371.872,704.397L431.357,774.642L528.458,774.642L528.458,755.446L432.13,754.261L371.872,704.397Z" style="stroke:black;stroke-width:1px;"/>
    </g>
    <g transform="matrix(1,0,0,1,-158.737,-649.993)">
        <path d="M528.458,755.446L585.797,755.446L528.458,704.397L372.872,704.397L433.147,753.889L528.458,755.446Z" style="fill:rgb(233,233,233);stroke:black;stroke-width:1px;"/>
    </g>
    <g transform="matrix(1,0,0,1,-158.737,-649.993)">
        <path d="M372.872,704.397L217.923,704.397L159.237,755.446L314.579,755.446L372.872,704.397Z" style="fill:rgb(204,204,204);stroke:black;stroke-width:1px;"/>
    </g>
    <g transform="matrix(1,0,0,1,-158.737,-649.993)">
        <path d="M217.923,704.397L159.237,650.736L314.288,650.493L372.872,704.397L217.923,704.397Z" style="fill:rgb(244,244,244);stroke:black;stroke-width:1px;"/>
    </g>
    <g transform="matrix(1,0,0,1,-158.737,-649.993)">
        <path d="M372.872,704.397L430.672,650.493L585.797,650.493L528.985,704.397L372.872,704.397Z" style="fill:rgb(204,204,204);stroke:black;stroke-width:1px;"/>
    </g>
    <g transform="matrix(1,0,0,1,-158.737,-649.993)">
        <path d="M278.115,862.32L278.115,881.104C278.115,886.287 273.906,890.495 268.723,890.495L249.205,890.495C244.021,890.495 239.813,886.287 239.813,881.104L239.813,862.32C239.813,857.137 244.021,852.929 249.205,852.929L268.723,852.929C273.906,852.929 278.115,857.137 278.115,862.32Z" style="fill:rgb(243,243,243);"/>
    </g>
</svg>
