<?xml version="1.0" ?><svg viewBox="0 0 1000 1000" xmlns="http://www.w3.org/2000/svg"><path d="m563.3 253.05c.11-1.53.18-3.08.18-4.63a63.63 63.63 0 0 0 -96.29-54.63 93.55 93.55 0 0 0 -184.37 18.62 61.54 61.54 0 0 0 -60.64 61.53 61.55 61.55 0 0 0 61.55 61.55h267.76a42.07 42.07 0 0 0 42.07-42.07 42.07 42.07 0 0 0 -30.26-40.37z" fill="#f4f4f4"/><path d="m283.73 335.49h267.76a42.07 42.07 0 0 0 42.07-42.07v-.05a5.66 5.66 0 0 0 -5.69-5.59h-306.41c-30.42 0-32.42 45.44-2.08 47.56q2.16.15 4.35.15z" fill="#e9e9e9"/><g fill="none" stroke="#000" stroke-miterlimit="10"><path d="m563.3 253.05c.11-1.53.18-3.08.18-4.63a63.63 63.63 0 0 0 -96.29-54.63 93.55 93.55 0 0 0 -184.37 18.62 61.54 61.54 0 0 0 -60.64 61.53 61.55 61.55 0 0 0 61.55 61.55h267.76a42.07 42.07 0 0 0 42.07-42.07 42.07 42.07 0 0 0 -30.26-40.37z"/><path d="m282.82 212.41s11.54.35 15.37 6.44"/><path d="m456.45 204.66c.86-1.19 4.62-7.23 10.74-10.87"/><path d="m563.3 253.05a28 28 0 0 1 -1.25 6.62"/></g><path d="m286.13 191.94s-2.82 13 1 17c5.49 5.79 7.18 6.05 7.18 6.05s-7.84-2.44-11.49-2.61c0 .03.61-14.3 3.31-20.44z"/><path d="m461.1 177c.26.59 4.54 14.59-1.23 23.13a49.19 49.19 0 0 1 5.48-5.12s2.36-.65 1.84-2.25-2.25-6.73-2.25-6.73z"/><path d="m562.26 259.44a14.06 14.06 0 0 1 13.72.11s-8.47-6.34-12.12-6.34c-1 0-.63 0-.56 1.09"/><path d="m562.3 484.93v.15a.13.13 0 0 0 .25 0v-.15a.13.13 0 0 0 -.25 0z"/><path d="m457.84 584.89h203.75v304.94h-203.75z" fill="#f4f4f4"/><path d="m457.84 584.89h203.75v304.94h-203.75z" fill="none" stroke="#000" stroke-miterlimit="10"/><path d="m453.96 584.89h86v304.94h-86z" fill="#e9e9e9"/><path d="m453.96 584.89h69.07v304.94h-69.07z" fill="#ccc"/><path d="m453.96 584.89h86v304.94h-86z" fill="none" stroke="#000" stroke-miterlimit="10"/><path d="m559.72 623.11h98.38v4.15h-98.38z" fill="#e9e9e9"/><path d="m559.72 600.33h121.57v22.78h-121.57z" fill="#ccc"/><path d="m559.72 600.33h121.57v22.78h-121.57z" fill="none" stroke="#000" stroke-miterlimit="10"/><path d="m559.72 600.33h19.81v22.78h-19.81z"/><path d="m559.72 600.33h19.81v22.78h-19.81z" fill="none" stroke="#000" stroke-miterlimit="10"/><path d="m588.33 610.08h3.28v3.28h-3.28z"/><g fill="#fff"><path d="m595.9 610.08h3.28v3.28h-3.28z"/><path d="m603.48 610.08h3.28v3.28h-3.28z"/><path d="m611.06 610.08h3.28v3.28h-3.28z"/></g><path d="m559.72 661.33h98.38v4.15h-98.38z" fill="#e9e9e9"/><path d="m559.72 638.55h121.57v22.78h-121.57z" fill="#ccc"/><path d="m559.72 638.55h121.57v22.78h-121.57z" fill="none" stroke="#000" stroke-miterlimit="10"/><path d="m559.72 638.55h19.81v22.78h-19.81z"/><path d="m559.72 638.55h19.81v22.78h-19.81z" fill="none" stroke="#000" stroke-miterlimit="10"/><path d="m588.33 648.3h3.28v3.28h-3.28z"/><g fill="#fff"><path d="m595.9 648.3h3.28v3.28h-3.28z"/><path d="m603.48 648.3h3.28v3.28h-3.28z"/><path d="m611.06 648.3h3.28v3.28h-3.28z"/></g><path d="m559.72 699.56h98.38v4.15h-98.38z" fill="#e9e9e9"/><path d="m559.72 676.78h121.57v22.78h-121.57z" fill="#ccc"/><path d="m559.72 676.78h121.57v22.78h-121.57z" fill="none" stroke="#000" stroke-miterlimit="10"/><path d="m559.72 676.78h19.81v22.78h-19.81z"/><path d="m559.72 676.78h19.81v22.78h-19.81z" fill="none" stroke="#000" stroke-miterlimit="10"/><path d="m588.33 686.53h3.28v3.28h-3.28z"/><g fill="#fff"><path d="m595.9 686.53h3.28v3.28h-3.28z"/><path d="m603.48 686.53h3.28v3.28h-3.28z"/><path d="m611.06 686.53h3.28v3.28h-3.28z"/></g><path d="m559.72 737.78h98.38v4.15h-98.38z" fill="#e9e9e9"/><path d="m559.72 715h121.57v22.78h-121.57z" fill="#ccc"/><path d="m559.72 715h121.57v22.78h-121.57z" fill="none" stroke="#000" stroke-miterlimit="10"/><path d="m559.72 715h19.81v22.78h-19.81z"/><path d="m559.72 715h19.81v22.78h-19.81z" fill="none" stroke="#000" stroke-miterlimit="10"/><path d="m588.33 724.75h3.28v3.28h-3.28z"/><g fill="#fff"><path d="m595.9 724.75h3.28v3.28h-3.28z"/><path d="m603.48 724.75h3.28v3.28h-3.28z"/><path d="m611.06 724.75h3.28v3.28h-3.28z"/></g><path d="m559.72 776.01h98.38v4.15h-98.38z" fill="#e9e9e9"/><path d="m559.72 753.23h121.57v22.78h-121.57z" fill="#ccc"/><path d="m559.72 753.23h121.57v22.78h-121.57z" fill="none" stroke="#000" stroke-miterlimit="10"/><path d="m559.72 753.23h19.81v22.78h-19.81z"/><path d="m559.72 753.23h19.81v22.78h-19.81z" fill="none" stroke="#000" stroke-miterlimit="10"/><path d="m588.33 762.98h3.28v3.28h-3.28z"/><g fill="#fff"><path d="m595.9 762.98h3.28v3.28h-3.28z"/><path d="m603.48 762.98h3.28v3.28h-3.28z"/><path d="m611.06 762.98h3.28v3.28h-3.28z"/></g><path d="m559.72 814.23h98.38v4.15h-98.38z" fill="#e9e9e9"/><path d="m559.72 791.45h121.57v22.78h-121.57z" fill="#ccc"/><path d="m559.72 791.45h121.57v22.78h-121.57z" fill="none" stroke="#000" stroke-miterlimit="10"/><path d="m559.72 791.45h19.81v22.78h-19.81z"/><path d="m559.72 791.45h19.81v22.78h-19.81z" fill="none" stroke="#000" stroke-miterlimit="10"/><path d="m588.33 801.2h3.28v3.28h-3.28z"/><g fill="#fff"><path d="m595.9 801.2h3.28v3.28h-3.28z"/><path d="m603.48 801.2h3.28v3.28h-3.28z"/><path d="m611.06 801.2h3.28v3.28h-3.28z"/></g><path d="m559.72 852.46h98.38v4.15h-98.38z" fill="#e9e9e9"/><path d="m559.72 829.68h121.57v22.78h-121.57z" fill="#ccc"/><path d="m559.72 829.68h121.57v22.78h-121.57z" fill="none" stroke="#000" stroke-miterlimit="10"/><path d="m559.72 829.68h19.81v22.78h-19.81z"/><path d="m559.72 829.68h19.81v22.78h-19.81z" fill="none" stroke="#000" stroke-miterlimit="10"/><path d="m588.33 839.42h3.28v3.28h-3.28z"/><g fill="#fff"><path d="m595.9 839.42h3.28v3.28h-3.28z"/><path d="m603.48 839.42h3.28v3.28h-3.28z"/><path d="m611.06 839.42h3.28v3.28h-3.28z"/></g><path d="m404.05 484.93v.15a.13.13 0 0 0 .25 0v-.15a.13.13 0 0 0 -.25 0z"/><path d="m299.59 503.35h203.75v386.47h-203.75z" fill="#f4f4f4"/><path d="m299.59 503.35h203.75v386.47h-203.75z" fill="none" stroke="#000" stroke-miterlimit="10"/><path d="m295.72 503.35h86v386.47h-86z" fill="#e9e9e9"/><path d="m312.1 688.17h49.68v201.65h-49.68z" fill="#ccc"/><path d="m295.72 503.35h86v386.47h-86z" fill="none" stroke="#000" stroke-miterlimit="10"/><path d="m401.47 546.66h98.38v4.15h-98.38z" fill="#e9e9e9"/><path d="m401.47 523.88h121.57v22.78h-121.57z" fill="#ccc"/><path d="m401.47 523.88h121.57v22.78h-121.57z" fill="none" stroke="#000" stroke-miterlimit="10"/><path d="m401.47 523.88h19.81v22.78h-19.81z"/><path d="m401.47 523.88h19.81v22.78h-19.81z" fill="none" stroke="#000" stroke-miterlimit="10"/><path d="m430.08 533.63h3.28v3.28h-3.28z"/><g fill="#fff"><path d="m437.66 533.63h3.28v3.28h-3.28z"/><path d="m445.24 533.63h3.28v3.28h-3.28z"/><path d="m452.81 533.63h3.28v3.28h-3.28z"/></g><path d="m401.47 584.89h98.38v4.15h-98.38z" fill="#e9e9e9"/><path d="m401.47 562.11h121.57v22.78h-121.57z" fill="#ccc"/><path d="m401.47 562.11h121.57v22.78h-121.57z" fill="none" stroke="#000" stroke-miterlimit="10"/><path d="m401.47 562.11h19.81v22.78h-19.81z"/><path d="m401.47 562.11h19.81v22.78h-19.81z" fill="none" stroke="#000" stroke-miterlimit="10"/><path d="m430.08 571.85h3.28v3.28h-3.28z"/><g fill="#fff"><path d="m437.66 571.85h3.28v3.28h-3.28z"/><path d="m445.24 571.85h3.28v3.28h-3.28z"/><path d="m452.81 571.85h3.28v3.28h-3.28z"/></g><path d="m401.47 623.11h98.38v4.15h-98.38z" fill="#e9e9e9"/><path d="m401.47 600.33h121.57v22.78h-121.57z" fill="#ccc"/><path d="m401.47 600.33h121.57v22.78h-121.57z" fill="none" stroke="#000" stroke-miterlimit="10"/><path d="m401.47 600.33h19.81v22.78h-19.81z"/><path d="m401.47 600.33h19.81v22.78h-19.81z" fill="none" stroke="#000" stroke-miterlimit="10"/><path d="m430.08 610.08h3.28v3.28h-3.28z"/><g fill="#fff"><path d="m437.66 610.08h3.28v3.28h-3.28z"/><path d="m445.24 610.08h3.28v3.28h-3.28z"/><path d="m452.81 610.08h3.28v3.28h-3.28z"/></g><path d="m401.47 661.33h98.38v4.15h-98.38z" fill="#e9e9e9"/><path d="m401.47 638.55h121.57v22.78h-121.57z" fill="#ccc"/><path d="m401.47 638.55h121.57v22.78h-121.57z" fill="none" stroke="#000" stroke-miterlimit="10"/><path d="m401.47 638.55h19.81v22.78h-19.81z"/><path d="m401.47 638.55h19.81v22.78h-19.81z" fill="none" stroke="#000" stroke-miterlimit="10"/><path d="m430.08 648.3h3.28v3.28h-3.28z"/><g fill="#fff"><path d="m437.66 648.3h3.28v3.28h-3.28z"/><path d="m445.24 648.3h3.28v3.28h-3.28z"/><path d="m452.81 648.3h3.28v3.28h-3.28z"/></g><path d="m401.47 699.56h98.38v4.15h-98.38z" fill="#e9e9e9"/><path d="m401.47 676.78h121.57v22.78h-121.57z" fill="#ccc"/><path d="m401.47 676.78h121.57v22.78h-121.57z" fill="none" stroke="#000" stroke-miterlimit="10"/><path d="m401.47 676.78h19.81v22.78h-19.81z"/><path d="m401.47 676.78h19.81v22.78h-19.81z" fill="none" stroke="#000" stroke-miterlimit="10"/><path d="m430.08 686.53h3.28v3.28h-3.28z"/><g fill="#fff"><path d="m437.66 686.53h3.28v3.28h-3.28z"/><path d="m445.24 686.53h3.28v3.28h-3.28z"/><path d="m452.81 686.53h3.28v3.28h-3.28z"/></g><path d="m401.47 737.78h98.38v4.15h-98.38z" fill="#e9e9e9"/><path d="m401.47 715h121.57v22.78h-121.57z" fill="#ccc"/><path d="m401.47 715h121.57v22.78h-121.57z" fill="none" stroke="#000" stroke-miterlimit="10"/><path d="m401.47 715h19.81v22.78h-19.81z"/><path d="m401.47 715h19.81v22.78h-19.81z" fill="none" stroke="#000" stroke-miterlimit="10"/><path d="m430.08 724.75h3.28v3.28h-3.28z"/><g fill="#fff"><path d="m437.66 724.75h3.28v3.28h-3.28z"/><path d="m445.24 724.75h3.28v3.28h-3.28z"/><path d="m452.81 724.75h3.28v3.28h-3.28z"/></g><path d="m401.47 776.01h98.38v4.15h-98.38z" fill="#e9e9e9"/><path d="m401.47 753.23h121.57v22.78h-121.57z" fill="#ccc"/><path d="m401.47 753.23h121.57v22.78h-121.57z" fill="none" stroke="#000" stroke-miterlimit="10"/><path d="m401.47 753.23h19.81v22.78h-19.81z"/><path d="m401.47 753.23h19.81v22.78h-19.81z" fill="none" stroke="#000" stroke-miterlimit="10"/><path d="m430.08 762.98h3.28v3.28h-3.28z"/><g fill="#fff"><path d="m437.66 762.98h3.28v3.28h-3.28z"/><path d="m445.24 762.98h3.28v3.28h-3.28z"/><path d="m452.81 762.98h3.28v3.28h-3.28z"/></g><path d="m401.47 814.23h98.38v4.15h-98.38z" fill="#e9e9e9"/><path d="m401.47 791.45h121.57v22.78h-121.57z" fill="#ccc"/><path d="m401.47 791.45h121.57v22.78h-121.57z" fill="none" stroke="#000" stroke-miterlimit="10"/><path d="m401.47 791.45h19.81v22.78h-19.81z"/><path d="m401.47 791.45h19.81v22.78h-19.81z" fill="none" stroke="#000" stroke-miterlimit="10"/><path d="m430.08 801.2h3.28v3.28h-3.28z"/><g fill="#fff"><path d="m437.66 801.2h3.28v3.28h-3.28z"/><path d="m445.24 801.2h3.28v3.28h-3.28z"/><path d="m452.81 801.2h3.28v3.28h-3.28z"/></g><path d="m401.47 852.46h98.38v4.15h-98.38z" fill="#e9e9e9"/><path d="m401.47 829.68h121.57v22.78h-121.57z" fill="#ccc"/><path d="m401.47 829.68h121.57v22.78h-121.57z" fill="none" stroke="#000" stroke-miterlimit="10"/><path d="m401.47 829.68h19.81v22.78h-19.81z"/><path d="m401.47 829.68h19.81v22.78h-19.81z" fill="none" stroke="#000" stroke-miterlimit="10"/><path d="m430.08 839.42h3.28v3.28h-3.28z"/><g fill="#fff"><path d="m437.66 839.42h3.28v3.28h-3.28z"/><path d="m445.24 839.42h3.28v3.28h-3.28z"/><path d="m452.81 839.42h3.28v3.28h-3.28z"/></g><g fill="#ccc"><path d="m401.47 865.32h3.17v9.56h-3.17z"/><path d="m409.79 865.32h3.17v9.56h-3.17z"/><path d="m418.11 865.32h3.17v9.56h-3.17z"/><path d="m426.43 865.32h3.17v9.56h-3.17z"/></g><path d="m242.79 484.93v.15a.13.13 0 0 0 .25 0v-.15a.13.13 0 0 0 -.25 0z"/><path d="m138.33 661.33h203.75v228.49h-203.75z" fill="#f4f4f4"/><path d="m138.33 661.33h203.75v228.49h-203.75z" fill="none" stroke="#000" stroke-miterlimit="10"/><path d="m134.45 661.33h86v228.49h-86z" fill="#e9e9e9"/><path d="m213.18 661.33h7.28a0 0 0 0 1 0 0v228.49a0 0 0 0 1 0 0h-50.11a0 0 0 0 1 0 0v-185.65a42.83 42.83 0 0 1 42.83-42.83z" fill="#ccc"/><path d="m134.45 661.33h86v228.49h-86z" fill="none" stroke="#000" stroke-miterlimit="10"/><path d="m240.21 699.56h98.38v4.15h-98.38z" fill="#e9e9e9"/><path d="m240.21 676.78h121.57v22.78h-121.57z" fill="#ccc"/><path d="m240.21 676.78h121.57v22.78h-121.57z" fill="none" stroke="#000" stroke-miterlimit="10"/><path d="m240.21 676.78h19.81v22.78h-19.81z"/><path d="m240.21 676.78h19.81v22.78h-19.81z" fill="none" stroke="#000" stroke-miterlimit="10"/><path d="m268.82 686.53h3.28v3.28h-3.28z"/><g fill="#fff"><path d="m276.4 686.53h3.28v3.28h-3.28z"/><path d="m283.97 686.53h3.28v3.28h-3.28z"/><path d="m291.55 686.53h3.28v3.28h-3.28z"/></g><path d="m240.21 737.78h98.38v4.15h-98.38z" fill="#e9e9e9"/><path d="m240.21 715h121.57v22.78h-121.57z" fill="#ccc"/><path d="m240.21 715h121.57v22.78h-121.57z" fill="none" stroke="#000" stroke-miterlimit="10"/><path d="m240.21 715h19.81v22.78h-19.81z"/><path d="m240.21 715h19.81v22.78h-19.81z" fill="none" stroke="#000" stroke-miterlimit="10"/><path d="m268.82 724.75h3.28v3.28h-3.28z"/><g fill="#fff"><path d="m276.4 724.75h3.28v3.28h-3.28z"/><path d="m283.97 724.75h3.28v3.28h-3.28z"/><path d="m291.55 724.75h3.28v3.28h-3.28z"/></g><path d="m240.21 776.01h98.38v4.15h-98.38z" fill="#e9e9e9"/><path d="m240.21 753.23h121.57v22.78h-121.57z" fill="#ccc"/><path d="m240.21 753.23h121.57v22.78h-121.57z" fill="none" stroke="#000" stroke-miterlimit="10"/><path d="m240.21 753.23h19.81v22.78h-19.81z"/><path d="m240.21 753.23h19.81v22.78h-19.81z" fill="none" stroke="#000" stroke-miterlimit="10"/><path d="m268.82 762.98h3.28v3.28h-3.28z"/><g fill="#fff"><path d="m276.4 762.98h3.28v3.28h-3.28z"/><path d="m283.97 762.98h3.28v3.28h-3.28z"/><path d="m291.55 762.98h3.28v3.28h-3.28z"/></g><path d="m240.21 814.23h98.38v4.15h-98.38z" fill="#e9e9e9"/><path d="m240.21 791.45h121.57v22.78h-121.57z" fill="#ccc"/><path d="m240.21 791.45h121.57v22.78h-121.57z" fill="none" stroke="#000" stroke-miterlimit="10"/><path d="m240.21 791.45h19.81v22.78h-19.81z"/><path d="m240.21 791.45h19.81v22.78h-19.81z" fill="none" stroke="#000" stroke-miterlimit="10"/><path d="m268.82 801.2h3.28v3.28h-3.28z"/><g fill="#fff"><path d="m276.4 801.2h3.28v3.28h-3.28z"/><path d="m283.97 801.2h3.28v3.28h-3.28z"/><path d="m291.55 801.2h3.28v3.28h-3.28z"/></g><path d="m240.21 852.46h98.38v4.15h-98.38z" fill="#e9e9e9"/><path d="m240.21 829.68h121.57v22.78h-121.57z" fill="#ccc"/><path d="m240.21 829.68h121.57v22.78h-121.57z" fill="none" stroke="#000" stroke-miterlimit="10"/><path d="m240.21 829.68h19.81v22.78h-19.81z"/><path d="m240.21 829.68h19.81v22.78h-19.81z" fill="none" stroke="#000" stroke-miterlimit="10"/><path d="m268.82 839.42h3.28v3.28h-3.28z"/><g fill="#fff"><path d="m276.4 839.42h3.28v3.28h-3.28z"/><path d="m283.97 839.42h3.28v3.28h-3.28z"/><path d="m291.55 839.42h3.28v3.28h-3.28z"/></g><g fill="#ccc"><path d="m559.72 865.32h3.17v9.56h-3.17z"/><path d="m568.04 865.32h3.17v9.56h-3.17z"/><path d="m576.35 865.32h3.17v9.56h-3.17z"/><path d="m584.67 865.32h3.17v9.56h-3.17z"/><path d="m240.21 865.32h3.17v9.56h-3.17z"/><path d="m248.53 865.32h3.17v9.56h-3.17z"/><path d="m256.85 865.32h3.17v9.56h-3.17z"/><path d="m265.17 865.32h3.17v9.56h-3.17z"/><rect height="13.98" rx="6.99" width="156.38" x="329.68" y="297.66"/></g><path d="m336.67 311.63a7 7 0 0 1 -7-7 7 7 0 0 1 7-7h142.4a7 7 0 0 1 7 7 7 7 0 0 1 -7 7" fill="none" stroke="#000" stroke-miterlimit="10"/><circle cx="219.79" cy="618.41" fill="#ffa766" r="20.42"/><path d="m395.25 437.75h32.25v32.25h-32.25z" fill="#ff6679" transform="matrix(.70710678 -.70710678 .70710678 .70710678 -200.45 423.82)"/><path d="m600.54 515.33h-21.14l-10.57 18.3 10.57 18.3h21.14l10.56-18.3z" fill="#60d8d2"/><path d="m295.72 480.9-20.01 34.64h40.01z" fill="#8f8fef"/><path d="m182.43 430.27h9.75v9.75h-9.75z"/><path d="m182.43 510.67h9.75v9.75h-9.75z"/><path d="m214.92 510.67h9.75v9.75h-9.75z"/><path d="m345.35 363.16h9.75v9.75h-9.75z"/><path d="m290.84 430.27h9.75v9.75h-9.75z"/><path d="m345.35 430.27h9.75v9.75h-9.75z"/><path d="m530.89 430.27h9.75v9.75h-9.75z"/><path d="m467.64 430.27h9.75v9.75h-9.75z"/><path d="m639.3 430.27h9.75v9.75h-9.75z"/><path d="m639.3 528.76h9.75v9.75h-9.75z"/><path d="m406.5 363.16h9.75v9.75h-9.75z"/><path d="m467.64 363.16h9.75v9.75h-9.75z"/><g fill="none" stroke="#000" stroke-miterlimit="10" stroke-width=".25"><path d="m350.23 311.63v123.51h-162.92v80.4h32.48v102.87"/><path d="m411.37 311.63v142.25"/><path d="m472.52 311.63v56.4 67.11h63.24 108.41v98.49h-54.2"/></g><path d="m766.64 482.84a70.08 70.08 0 0 0 -3 14.65c-.48 3.64-.89 7.6.65 11.06 3.17 7.12 12.62 7.37 18 2.6.48-.43-.23-1.14-.71-.71a11.76 11.76 0 0 1 -10.9 2.56c-3.77-1.08-5.9-4.48-6.35-8.21-.39-3.23.18-6.5.62-9.69a59.49 59.49 0 0 1 2.66-12c.22-.61-.75-.87-1-.26z"/><path d="m778.34 497.22a.17.17 0 0 1 -.1.14l.38-.05h-.1l.35.35v-.09l-.05.39a3 3 0 0 1 .33-.46c.39-.52-.48-1-.87-.51-.23.31-.44.53-.36.94a.5.5 0 0 0 .35.35c1 .18 1.34-1.09.8-1.74-.41-.5-1.11.21-.71.7z"/><path d="m768.29 495.51a.15.15 0 0 1 -.1.14h.38-.1l.35.35v-.09.38a3.45 3.45 0 0 1 .33-.45c.39-.52-.48-1-.87-.51-.23.31-.44.53-.35.94a.5.5 0 0 0 .34.35c1 .18 1.34-1.09.8-1.74s-1.11.21-.71.7z"/><path d="m788.58 500.76c2.72-.78 6.4-3.86 5-7.1a3 3 0 0 0 -3.29-1.72 4.18 4.18 0 0 0 -3.17 2.77c-.24.59.72.85 1 .26a3.09 3.09 0 0 1 2.7-2.08c1.93 0 2.29 2 1.69 3.42a6.32 6.32 0 0 1 -4.2 3.49.5.5 0 0 0 .26 1z"/><path d="m791.4 494.79c-1.43-1.24-2.56 2-2.74 2.89 0 .16.21.23.24.07.14-.7 1.14-3.81 2.32-2.79.12.11.3-.07.18-.17z"/><path d="m790.34 496.08c-.31-.55-.91-.22-1.2.15-.1.13.12.26.21.13.25-.38.51-.44.77-.16.08.15.29 0 .22-.12z"/><path d="m788 500.28a203.79 203.79 0 0 0 1.24 24.72c.06.63 1.06.64 1 0a203.79 203.79 0 0 1 -1.24-24.72.5.5 0 0 0 -1 0z"/><path d="m770.63 514.33c.14 3.45.47 6.91.35 10.36 0 .64 1 .64 1 0 .12-3.45-.21-6.91-.35-10.36 0-.65-1-.65-1 0z"/><path d="m772.91 495.3a28.76 28.76 0 0 0 -1.53 5.15c-.13.63.84.9 1 .26a28 28 0 0 1 1.54-5.15c.24-.59-.73-.85-1-.26z"/><path d="m782 492.49a4.13 4.13 0 0 0 -2.38-1c-.64-.06-.63.94 0 1a3 3 0 0 1 1.68.72c.48.43 1.19-.28.7-.7z"/><path d="m771.29 491.14a4.14 4.14 0 0 0 -2.39-1c-.64-.06-.63.94 0 1a3 3 0 0 1 1.68.72c.48.42 1.19-.28.71-.71z"/><path d="m782 511.13s-4.26 8.27-10.37 11.36l-.06-3.39-.23-5.4s-.48-.11 1 .21c3.54.74 8.46-1.45 9.66-2.78z"/><path d="m774.88 503.22a5.29 5.29 0 0 1 -2.29.41.5.5 0 0 0 0 1 6 6 0 0 0 2.55-.44c.59-.24.33-1.21-.26-1z"/><path d="m797.58 490.63c-.73-12.31-11.08-14.63-11.08-14.63s-19.22-8-23.56 12.38c-.07.3 13.92 2.5 19-4.14-1 1.81-2.48 4.33-3.12 5.38 0 0 4.59.46 5.9-2.32a6 6 0 0 0 3.49 6.47s1.36-1.91 3.07-1.32 2.21.78 2 2.19-1.92 4.27-2.85 4.77-2.17.21-2 2.92-.21 7.06-.21 7.06 10.09-6.46 9.36-18.76z"/><path d="m818.22 456.63c-3.27-3.28-9.36-2.73-14.87.9a24.64 24.64 0 0 1 -6.56 3 14.12 14.12 0 1 0 17.54 17.54 24.31 24.31 0 0 1 3-6.56c3.67-5.51 4.17-11.61.89-14.88z"/><path d="m771.48 524.69a35.47 35.47 0 0 0 -25.37 5.42c-9.32 6.28-31 18.19-31 18.19s-7.61-5.21-24.76-16.29-22.35-18.1-33.35-18.1c-5.21 0-12.38 2.9-12.38 2.9" fill="none" stroke="#000" stroke-miterlimit="10"/><path d="m652.56 519.07a3.5 3.5 0 0 0 .35 2.89c.34.55 1.2 0 .86-.5a2.5 2.5 0 0 1 -.24-2.13c.2-.61-.77-.87-1-.26z"/><path d="m652 524.54a2.26 2.26 0 0 0 1.2 1.46c.58.28 1.08-.58.51-.87a1.28 1.28 0 0 1 -.71-.83.5.5 0 0 0 -1 .27z"/><path d="m653.34 528.55a1.77 1.77 0 0 0 2 1.17c.64-.11.37-1.07-.26-1a.72.72 0 0 1 -.78-.46c-.22-.6-1.19-.34-1 .26z"/><path d="m661.89 521.71s-4.41 1.46-5.54 4.49 5.54.49 5.54.49-.16 4.24 3.53 5.54c0 0 25.41 39.09 46.26 42.13 17.26 2.52 40.83-14.33 40.18-13.9" fill="none" stroke="#000" stroke-miterlimit="10"/><path d="m714.32 548.32a13.41 13.41 0 0 1 5 5.91c.26.59 1.12.08.87-.51a14.24 14.24 0 0 0 -5.33-6.26c-.54-.35-1 .51-.5.86z"/><path d="m789.74 525s27.39-15.55 40.75 20.62 10.42 64.5-14 58-51.23-22.08-51.23-22.08a34.2 34.2 0 0 1 -13.06-3.06c-4.37-2.19-5.11-3.82-5.11-3.82" fill="none" stroke="#000" stroke-miterlimit="10"/><path d="m746.73 571a9.67 9.67 0 0 0 2.5 1.42c.6.24.86-.73.27-1a8 8 0 0 1 -2.07-1.17c-.5-.39-1.21.32-.7.71z"/><path d="m748.54 567.1a24.31 24.31 0 0 0 2.83 2.09c.55.34 1-.53.5-.87a21.56 21.56 0 0 1 -2.62-1.93c-.49-.42-1.2.29-.71.71z"/><path d="m752.62 563.85a13.43 13.43 0 0 0 6.58 2.76c1.19.15 2.76.34 3.21-1 .2-.61-.76-.87-1-.26-.37 1.09-3.93 0-4.57-.25a13.4 13.4 0 0 1 -3.76-2.07c-.51-.39-1 .48-.5.86z"/><g fill="none" stroke="#000" stroke-miterlimit="10"><path d="m765.82 563.08a14.51 14.51 0 0 1 2.44 5.67s9.17 1.78 24.6 4.37c18.55 3.1 27 6.67 27 6.67"/><path d="m754.46 564.5 3.48-22.5 22.27 4.24.76 7.01 30.46 5.86-2.62 17.29"/><path d="m765.44 524.21s-2.28 13.77 10.1 14.53l1.73 4.35 2.18-4.78s19 1.39 20.53-16.47"/><path d="m752.19 578.44-1.52 7.76 40.43 8.22"/><path d="m761.93 588.49v2.72a37.75 37.75 0 0 1 -1.2 9.46c-5.14 20-25.21 100.66-26.61 149.36a3.65 3.65 0 0 0 3.07 3.73c12.65 2 61.28 8.8 104.44.14a3.67 3.67 0 0 0 2.91-3.93c-1.82-20.24-12.22-128.7-28.06-146.39"/><path d="m740.59 754.28s-4.21 59.32-5.43 125.49a2.38 2.38 0 0 1 -.82 1.74l-4.93 4.2a2.34 2.34 0 0 0 1.52 4.11h21.16a2.32 2.32 0 0 0 2.27-1.78c2.51-10.45 15.19-64.82 18.12-110 1.17-17.91 1.33-20.45 1.33-20.45"/><path d="m809.63 757.78s13 87.91 19.64 121a2.29 2.29 0 0 1 -.57 2l-4.7 5.13a2.33 2.33 0 0 0 1.72 3.91h20.34a2.34 2.34 0 0 0 2.33-2.21c.5-9.76 2.25-50.21-.78-88.45a257.41 257.41 0 0 0 -8-45.26"/></g><path d="m739.35 534.88a74.37 74.37 0 0 1 12.41 25.22c0 .15.29.09.24-.07a74.54 74.54 0 0 0 -12.44-25.28c-.09-.12-.31 0-.21.13z"/><path d="m811.61 564.22c6.61-4.79 14-8.42 21.15-12.26.14-.08 0-.29-.13-.22-7.17 3.85-14.54 7.47-21.14 12.26-.13.09 0 .31.12.22z"/><path d="m759.42 606.07c4.41.6 5.93 7.08 5 10.7-1.21 4.81-5.55 6.13-10 6.48-.16 0-.16.27 0 .25 4.85-.39 9.48-2 10.36-7.4.61-3.64-1-9.69-5.34-10.27-.16 0-.23.22-.07.24z"/><path d="m782 620c-4.48 1.66-10.47 4.79-10.43 10.4 0 4.76 5.63 7.59 9.79 7.62a9.78 9.78 0 0 0 9.7-8 8.61 8.61 0 0 0 -6.56-9.58.12.12 0 0 0 -.06.24 8.35 8.35 0 0 1 6.25 10 9.56 9.56 0 0 1 -9.33 7.16c-4.7-.06-10.76-3.64-9.28-9.12 1.24-4.58 5.91-6.9 10-8.41.15-.05.08-.29-.07-.24z"/><path d="m776.76 595.94c-2.85 1.6-5.44 5.1-3.52 8.36 1.81 3.07 6 4.13 9.34 3.48 3.53-.69 6.33-3.16 6.13-6.92-.19-3.58-2.62-6.82-6.45-6.44-.16 0-.16.26 0 .25 3.88-.39 6.2 3 6.22 6.57s-2.76 5.68-6 6.3a9.22 9.22 0 0 1 -8.19-2.26c-3.11-3.19-.67-7.3 2.57-9.12.14-.08 0-.3-.13-.22z"/><path d="m762.55 592.88a13.17 13.17 0 0 0 4.58-3.46c.11-.12-.07-.3-.17-.17a13.16 13.16 0 0 1 -4.54 3.42c-.15.06 0 .28.13.21z"/><path d="m805 605.3a9.2 9.2 0 0 0 -7.09 7.77c-.44 4.35 3.81 6 7.47 6.33 4.14.37 7.49-3.61 8.17-7.43.52-2.93-.76-8.35-4.71-7.69-.16 0-.09.27.07.24l2.77 1a4.38 4.38 0 0 1 1.09 1.78 7 7 0 0 1 .59 2.3 8.82 8.82 0 0 1 -1 5.13 10.41 10.41 0 0 1 -3.35 3.69c-1.8 1.13-3.93.87-5.89.36-3.74-1-5.92-3.66-4.44-7.61a9 9 0 0 1 6.42-5.57c.15 0 .09-.28-.07-.25z"/><path d="m818.52 635.61a8.37 8.37 0 0 0 -7.52 1.39c-2 1.39-4.38 3.36-5.27 5.73-1.68 4.46 3.08 9.43 6.95 10.9 4.67 1.78 9.9-1.06 11.8-5.47 1.43-3.33 1.81-10.35-2.36-12-.15-.06-.22.18-.07.24 4.55 1.76 3.42 9.75 1.54 12.92-2.24 3.77-7.4 5.76-11.46 3.77s-8.39-7.1-5.47-11.61c2.37-3.67 7.39-7.16 11.82-5.7.16 0 .22-.19.07-.24z"/><path d="m768.56 655.34c-4.82 2.73-7.78 8.24-6.23 13.75a10.67 10.67 0 0 0 11.85 7.83c5.28-.84 10.15-6.82 9.81-12.19s-5.28-9.12-10.48-8.78c-.16 0-.16.26 0 .25 5.31-.34 10.42 3.71 10.25 9.29-.17 5.42-5.26 11-10.69 11.29a10.46 10.46 0 0 1 -10.67-8.47c-1.1-5.22 1.79-10.21 6.29-12.75.14-.08 0-.29-.13-.22z"/><path d="m804.41 672.41c-5.53.88-10.24 8.06-9.77 13.5.51 5.78 6.43 9.05 11.79 7.93 5.92-1.24 9.81-7.12 9.43-13a13.6 13.6 0 0 0 -3.27-8.18c-1.3-1.39-3.29-2.13-4.54-.32-.09.14.13.26.22.13 2.06-3 4.71.95 5.48 2.28a13.89 13.89 0 0 1 1.5 3.73 13 13 0 0 1 -.42 7.71 11.69 11.69 0 0 1 -11.11 7.65c-5.69-.24-10-5.31-8.52-10.93 1.14-4.45 4.47-9.47 9.27-10.24.16 0 .09-.26-.06-.24z"/><path d="m832.39 690.72c-6.06 2-12.11 9.65-9.61 16.37s11.3 9 16.79 4.67c.13-.1-.05-.28-.17-.18-6 4.68-16.23 1.13-16.75-6.91-.4-6.11 4.2-11.85 9.81-13.7.15-.05.09-.3-.07-.25z"/><path d="m835.64 691.32 1 .65c.14.09.26-.12.13-.21l-1-.65c-.13-.09-.26.12-.12.21z"/><path d="m750.88 642.48a8.09 8.09 0 0 1 2.91 7.62c-.57 3.33-3.32 5.44-5.88 7.32-.13.1 0 .31.13.22 2.61-1.93 5.45-4.1 6-7.51a8.38 8.38 0 0 0 -3-7.83c-.12-.1-.3.07-.18.18z"/><path d="m751.56 698c-4.07 3.67-4.93 10.28-1.35 14.62a11.09 11.09 0 0 0 14.7 2c4.49-3.23 6.65-10.35 3-15a11.22 11.22 0 0 0 -7-3.76c-2.15-.37-5.26-.79-6.8 1.1-.1.12.07.3.18.17 1.6-2 5.37-1.34 7.57-.81 2.51.6 5.11 1.93 6.43 4.25 2.92 5.09.3 11.87-4.65 14.58a10.91 10.91 0 0 1 -13.64-3.24 10.59 10.59 0 0 1 1.74-13.76c.12-.11-.06-.29-.18-.18z"/><path d="m791.4 713.89c-5.66.61-10.63 6.45-10.68 12.16 0 3 2 5.31 4.24 7.05s5 3.8 7.89 3.68c3.08-.13 5.78-2.48 8-4.38a12.28 12.28 0 0 0 4.74-7.72c.65-4.45-2.45-13.49-8.48-11.2-.15 0-.09.3.06.24 3.38-1.28 6.24 1.93 7.41 4.76a11.78 11.78 0 0 1 .47 7.55c-.73 2.74-2.58 4.72-4.72 6.48-2.38 1.94-5.36 4.47-8.65 3.92-2.5-.42-5.22-2.37-7.15-4-2.26-1.86-3.83-4.18-3.5-7.22.56-5.28 4.94-10.53 10.33-11.11.16 0 .16-.27 0-.25z"/><path d="m816.73 752.87c-6.8-9 1.73-20.6 12-20.31 3.31.09 5.86 1.34 7.08 4.61a13.85 13.85 0 0 1 .8 5.67 14.87 14.87 0 0 1 -6.13 11.16c-.13.09 0 .31.13.21a15.17 15.17 0 0 0 6.29-11.74c.19-4.85-1.72-9.52-7-10.11-10.86-1.23-20.65 11.05-13.42 20.61.09.13.31 0 .21-.13z"/><path d="m837.65 751.94a.13.13 0 0 0 0-.25.13.13 0 0 0 0 .25z"/><path d="m740.79 750.49c.81-3.73 2-7.58 4.9-10.23 3.88-3.54 8.66-2.62 13.09-.76 7 3 10.18 9.79 9 17.21 0 .16.21.23.24.07 1.26-7.79-2.14-14.67-9.5-17.67-4-1.64-8.32-2.54-12.07.22-3.56 2.63-5 6.94-5.88 11.09 0 .16.21.22.24.07z"/><path d="m736 851.74 24.47 3.26c.16 0 .16-.23 0-.25l-24.47-3.26c-.16 0-.16.23 0 .25z"/><path d="m826 855.26a105.48 105.48 0 0 1 22.09-4.69c.16 0 .16-.27 0-.25a105.51 105.51 0 0 0 -22.16 4.7c-.15.05-.09.29.07.24z"/><path d="m731.88 884.09 14.21-.39c1.13 0 3.32.37 4.33-.26.68-.43.44-.59.89-1.19a5.17 5.17 0 0 1 4.66-2.49.13.13 0 0 0 0-.25 5.29 5.29 0 0 0 -3.46 1c-.42.32-.65.68-1 1a6.61 6.61 0 0 1 -4.9 1.92l-14.7.4c-.16 0-.16.26 0 .25z"/><path d="m825.8 884.17.2-.17a.12.12 0 1 0 -.17-.17l-.22.21c-.11.12.06.3.18.18z"/><path d="m825.92 884c5 .12 10.07.07 15.1-.19.92 0 2.72.19 3.51-.26a10.2 10.2 0 0 1 .73-1.29 10.33 10.33 0 0 1 1.38-1.71 12.15 12.15 0 0 1 3-2.16c.14-.08 0-.3-.13-.22a12 12 0 0 0 -4 3.33 13.25 13.25 0 0 1 -.83 1.27c-1 1-2.82.76-4.13.82q-7.31.35-14.61.16a.13.13 0 0 0 0 .25z"/><path d="m815 561.75c-2.82 1.92-4.54 2.84-4.54 2.84l-1.26 9.3c-.42 2.79 1.4 3 1.4 3l6.64 2s1.09-4.41 1.91-8.86 8.14-15.21 8.14-15.21-8.91 4.64-12.29 6.93z"/><path d="m760.73 600.67s37.38 15.58 62.91 17.61c0 0-3.37-8.62-3.74-9.36s-2.3-5.94-6-6-14.62-5-14.62-5a120.42 120.42 0 0 0 -23-6.41l-5.49-1.12s-9.58-3.49-9 0-1.06 10.28-1.06 10.28z"/><path d="m739.21 776.26s26.18 4.81 33.15 3.59c0 0 1.14-17.5 1.17-17.83s2.32-4.77-1.45-4.49c-3.92.29-27.08-2.62-27.08-2.62s-5-1.59-4.58 1.84"/><path d="m813 780.05s25.26.78 31.56-4.2l-2.56-12.65-1.57-6.45s.15-2.56-3.59-2-20.63 2.55-20.63 2.55l-4.73.33s-2.86-1.47-1.8 2.85"/><path d="m748.22 563.42 7.13-4.7 2.37-17.21s-6.35 19.17-9.5 21.91z"/></svg>