<?xml version="1.0" ?><svg viewBox="0 0 1000 1000" xmlns="http://www.w3.org/2000/svg"><rect fill="#8f8fef" height="33.18" rx="2.2" transform="matrix(.70710678 .70710678 -.70710678 .70710678 560.01 -468.47)" width="33.18" x="828.91" y="425.17"/><path d="m580.94 286.87-28.04 32.13a2.47 2.47 0 0 0 1.39 4l41.86 8.21a2.46 2.46 0 0 0 2.8-3.22l-13.82-40.36a2.47 2.47 0 0 0 -4.19-.76z" fill="#60d8d2"/><circle cx="715.99" cy="373.92" fill="#ff6679" r="18.5"/><path d="m829.89 262.93v-31.44a6.37 6.37 0 0 0 -3.19-5.49l-27.23-15.72a6.4 6.4 0 0 0 -6.39 0l-27.22 15.72a6.38 6.38 0 0 0 -3.2 5.53v31.44a6.38 6.38 0 0 0 3.2 5.53l27.22 15.72a6.35 6.35 0 0 0 6.39 0l27.23-15.72a6.37 6.37 0 0 0 3.19-5.57z" fill="#ffa766"/><path d="m487.78 333.06h-191.67a20.83 20.83 0 0 0 -20.61 18.14c-2.59 20.25-8.17 60.06-16.41 99.14-12.53 59.4-24 83-31.46 92.31l9.79 7.8h189.37c27.07-33.94 44.33-149.54 50.5-197.66a8.29 8.29 0 0 1 8.2-7.22h4.59v-12.51z" fill="#e9e9e9"/><path d="m227.82 542.8 9.6 7.65h189.37a64 64 0 0 0 5.21-7.65z" stroke="#000" stroke-linejoin="round"/><path d="m332.28 788.64a78.32 78.32 0 0 0 -.25 33.9 16.07 16.07 0 0 0 15.75 12.56h359.05v-58.83h-358.83a16.07 16.07 0 0 0 -15.72 12.37z" fill="#f4f4f4"/><path d="m320.56 828.45a105.73 105.73 0 0 1 .33-45.79 21.71 21.71 0 0 1 21.22-16.66h-186.27a21.71 21.71 0 0 0 -21.21 16.71 105.73 105.73 0 0 0 -.33 45.79 21.68 21.68 0 0 0 21.27 17h186.26a21.68 21.68 0 0 1 -21.27-17.05z" fill="#c0c0c0"/><path d="m347.78 835.1a16.18 16.18 0 0 1 -15.78-12.92 78.13 78.13 0 0 1 .34-33.62 16 16 0 0 1 15.66-12.29h360.36a6.53 6.53 0 0 0 6.54-6.53v-3.74h-372.79a21.71 21.71 0 0 0 -21.22 16.71 105.73 105.73 0 0 0 -.33 45.79 21.68 21.68 0 0 0 21.27 17h373.07v-3.78a6.54 6.54 0 0 0 -6.54-6.54z" fill="#f4f4f4"/><g stroke="#000" stroke-miterlimit="10"><path d="m332.28 788.64a78.32 78.32 0 0 0 -.25 33.9 16.07 16.07 0 0 0 15.75 12.56h359.05v-58.83h-358.83a16.07 16.07 0 0 0 -15.72 12.37z" fill="none"/><path d="m343.48 776.92a16 16 0 0 0 -11.2 11.72 78.32 78.32 0 0 0 -.25 33.9 16 16 0 0 0 11.24 11.91 16 16 0 0 0 11.2-11.72 78.27 78.27 0 0 0 .25-33.89 16 16 0 0 0 -11.24-11.92z"/><g fill="none"><path d="m347.78 835.1a16.18 16.18 0 0 1 -15.78-12.92 78.13 78.13 0 0 1 .34-33.62 16 16 0 0 1 15.66-12.29h360.36a6.53 6.53 0 0 0 6.54-6.53v-3.74h-372.79a21.71 21.71 0 0 0 -21.22 16.71 105.73 105.73 0 0 0 -.33 45.79 21.68 21.68 0 0 0 21.27 17h373.07v-3.78a6.54 6.54 0 0 0 -6.54-6.54z"/><path d="m320.56 828.45a105.73 105.73 0 0 1 .33-45.79 21.71 21.71 0 0 1 21.22-16.66h-186.27a21.71 21.71 0 0 0 -21.21 16.71 105.73 105.73 0 0 0 -.33 45.79 21.68 21.68 0 0 0 21.27 17h186.26a21.68 21.68 0 0 1 -21.27-17.05z"/></g></g><path d="m462.22 665.75a69.92 69.92 0 0 0 .22-30.2 14.32 14.32 0 0 0 -14-11.19h-249.44v52.4h249.23a14.33 14.33 0 0 0 13.99-11.01z" fill="#c0c0c0"/><path d="m448.41 624.36a14.42 14.42 0 0 1 14.09 11.5 69.76 69.76 0 0 1 -.3 30 14.28 14.28 0 0 1 -14 10.94h-250.53a5.83 5.83 0 0 0 -5.82 5.83v3.37h261.61a19.35 19.35 0 0 0 18.9-14.88 94.07 94.07 0 0 0 .29-40.8 19.31 19.31 0 0 0 -18.95-15.12h-261.85v3.37a5.83 5.83 0 0 0 5.82 5.83z" fill="#e9e9e9"/><path d="m472.65 630.28a94.07 94.07 0 0 1 -.29 40.8 19.35 19.35 0 0 1 -18.9 14.92h165.94a19.33 19.33 0 0 0 18.89-14.88 94.22 94.22 0 0 0 .3-40.8 19.32 19.32 0 0 0 -19-15.12h-165.89a19.31 19.31 0 0 1 18.95 15.08z" fill="#f4f4f4"/><g stroke="#000" stroke-miterlimit="10"><path d="m462.22 665.75a69.92 69.92 0 0 0 .22-30.2 14.32 14.32 0 0 0 -14-11.19h-249.44v52.4h249.23a14.33 14.33 0 0 0 13.99-11.01z" fill="none"/><path d="m452.24 676.19a14.26 14.26 0 0 0 10-10.44 69.92 69.92 0 0 0 .22-30.2 14.23 14.23 0 0 0 -10-10.62 14.26 14.26 0 0 0 -10 10.44 69.77 69.77 0 0 0 -.21 30.2 14.22 14.22 0 0 0 9.99 10.62z" fill="none"/><path d="m452.24 676.19a14.26 14.26 0 0 0 10-10.44 69.92 69.92 0 0 0 .22-30.2 14.23 14.23 0 0 0 -10-10.62 14.26 14.26 0 0 0 -10 10.44 69.77 69.77 0 0 0 -.21 30.2 14.22 14.22 0 0 0 9.99 10.62z"/><g fill="none"><path d="m448.41 624.36a14.42 14.42 0 0 1 14.09 11.5 69.76 69.76 0 0 1 -.3 30 14.28 14.28 0 0 1 -14 10.94h-250.53a5.83 5.83 0 0 0 -5.82 5.83v3.37h261.61a19.35 19.35 0 0 0 18.9-14.88 94.07 94.07 0 0 0 .29-40.8 19.31 19.31 0 0 0 -18.95-15.12h-261.85v3.37a5.83 5.83 0 0 0 5.82 5.83z"/><path d="m472.65 630.28a94.07 94.07 0 0 1 -.29 40.8 19.35 19.35 0 0 1 -18.9 14.92h165.94a19.33 19.33 0 0 0 18.89-14.88 94.22 94.22 0 0 0 .3-40.8 19.32 19.32 0 0 0 -19-15.12h-165.89a19.31 19.31 0 0 1 18.95 15.08z"/></g></g><path d="m196.76 708.8a78.81 78.81 0 0 0 -.24 34.11 16.15 16.15 0 0 0 15.84 12.65h406.77v-59.21h-406.56a16.19 16.19 0 0 0 -15.81 12.45z" fill="#f4f4f4"/><path d="m212.36 755.56a16.3 16.3 0 0 1 -15.92-13 78.82 78.82 0 0 1 .34-33.84 16.15 16.15 0 0 1 15.79-12.37h407.7a7 7 0 0 0 7-7v-3.35h-420.61a21.85 21.85 0 0 0 -21.35 16.82 106.48 106.48 0 0 0 -.34 46.09 21.83 21.83 0 0 0 21.41 17.09h420.87v-3.42a7 7 0 0 0 -7-7z" fill="#f4f4f4"/><path d="m206.38 766h221.82v-.41a10 10 0 0 0 -10-10h-205.84a16.29 16.29 0 0 1 -15.92-13 78.82 78.82 0 0 1 .34-33.84 16.15 16.15 0 0 1 15.79-12.37h205.65a10 10 0 0 0 10-10v-.38h-221.56a21.92 21.92 0 0 0 -21.39 16.95 106.5 106.5 0 0 0 -.3 46 21.83 21.83 0 0 0 21.41 17.05z" fill="#e9e9e9"/><path d="m196.76 708.8a78.81 78.81 0 0 0 -.24 34.11 16.15 16.15 0 0 0 15.84 12.65h406.77v-59.21h-406.56a16.19 16.19 0 0 0 -15.81 12.45z" fill="none" stroke="#000" stroke-miterlimit="10"/><path d="m212.36 755.56a16.3 16.3 0 0 1 -15.92-13 78.82 78.82 0 0 1 .34-33.84 16.15 16.15 0 0 1 15.79-12.37h407.7a7 7 0 0 0 7-7v-3.35h-420.61a21.85 21.85 0 0 0 -21.35 16.82 106.48 106.48 0 0 0 -.34 46.09 21.83 21.83 0 0 0 21.41 17.09h420.87v-3.42a7 7 0 0 0 -7-7z" fill="none" stroke="#000" stroke-miterlimit="10"/><path d="m212.36 755.56h208.45v-59.21h-208.24a16.19 16.19 0 0 0 -15.81 12.45 78.81 78.81 0 0 0 -.24 34.11 16.15 16.15 0 0 0 15.84 12.65z" fill="#c0c0c0"/><g stroke="#000" stroke-miterlimit="10"><path d="m212.36 755.56h208.45v-59.21h-208.24a16.19 16.19 0 0 0 -15.81 12.45 78.81 78.81 0 0 0 -.24 34.11 16.15 16.15 0 0 0 15.84 12.65z" fill="none"/><path d="m200.45 750.39a15.88 15.88 0 0 0 3.88-7.28 78.81 78.81 0 0 0 .25-34.11 15.77 15.77 0 0 0 -3.93-7.48 15.8 15.8 0 0 0 -3.89 7.28 78.81 78.81 0 0 0 -.24 34.11 15.68 15.68 0 0 0 3.93 7.48z"/><path d="m206.38 766h221.82v-.41a10 10 0 0 0 -10-10h-205.84a16.29 16.29 0 0 1 -15.92-13 78.82 78.82 0 0 1 .34-33.84 16.15 16.15 0 0 1 15.79-12.37h205.65a10 10 0 0 0 10-10v-.38h-221.56a21.92 21.92 0 0 0 -21.39 16.95 106.5 106.5 0 0 0 -.3 46 21.83 21.83 0 0 0 21.41 17.05z" fill="none"/></g><path d="m550.68 596.69a63.77 63.77 0 0 0 .2-27.6 13.07 13.07 0 0 0 -12.82-10.23h-305.63v47.89h305.47a13.08 13.08 0 0 0 12.78-10.06z" fill="#c0c0c0"/><path d="m538.06 558.86a13.17 13.17 0 0 1 12.88 10.52 63.65 63.65 0 0 1 -.28 27.37 13 13 0 0 1 -12.76 10h-306.39a5.64 5.64 0 0 0 -5.64 5.64v2.77h316.81a17.69 17.69 0 0 0 17.32-13.6 86.23 86.23 0 0 0 .27-37.29c-1.75-8.1-9-13.82-18.3-13.82h-317l1 2.77a5.64 5.64 0 0 0 5.64 5.64z" fill="#e9e9e9"/><path d="m550.68 596.69a63.77 63.77 0 0 0 .2-27.6 13.07 13.07 0 0 0 -12.82-10.23h-305.63v47.89h305.47a13.08 13.08 0 0 0 12.78-10.06z" fill="none" stroke="#000" stroke-miterlimit="10"/><path d="m538.06 558.86a13.17 13.17 0 0 1 12.88 10.52 63.65 63.65 0 0 1 -.28 27.37 13 13 0 0 1 -12.76 10h-306.39a5.64 5.64 0 0 0 -5.64 5.64v2.77h316.81a17.69 17.69 0 0 0 17.32-13.6 86.23 86.23 0 0 0 .27-37.29c-1.75-8.1-9-13.82-18.3-13.82h-317l1 2.77a5.64 5.64 0 0 0 5.64 5.64z" fill="none" stroke="#000" stroke-miterlimit="10"/><path d="m538.06 558.86h-121.79v47.89h121.63a13.08 13.08 0 0 0 12.78-10.06 63.77 63.77 0 0 0 .2-27.6 13.07 13.07 0 0 0 -12.82-10.23z" fill="#e9e9e9"/><path d="m538.06 558.86h-121.79v47.89h121.63a13.08 13.08 0 0 0 12.78-10.06 63.77 63.77 0 0 0 .2-27.6 13.07 13.07 0 0 0 -12.82-10.23z" fill="none" stroke="#000" stroke-miterlimit="10"/><path d="m547.7 563a12.76 12.76 0 0 0 -3.14 5.89 63.76 63.76 0 0 0 -.2 27.6 12.7 12.7 0 0 0 3.18 6 12.82 12.82 0 0 0 3.14-5.88 63.77 63.77 0 0 0 .2-27.6 12.69 12.69 0 0 0 -3.18-6.01z" stroke="#000" stroke-miterlimit="10"/><path d="m542.9 550.45h-132.61v.34a8.07 8.07 0 0 0 8.07 8.07h119.7a13.18 13.18 0 0 1 12.88 10.52 63.65 63.65 0 0 1 -.28 27.37 13 13 0 0 1 -12.76 10h-119.54a8.07 8.07 0 0 0 -8.07 8.08v.33h132.39a17.71 17.71 0 0 0 17.32-13.71 86.19 86.19 0 0 0 .25-37.18 17.67 17.67 0 0 0 -17.35-13.82z" fill="#f4f4f4"/><path d="m542.9 550.45h-132.61v.34a8.07 8.07 0 0 0 8.07 8.07h119.7a13.18 13.18 0 0 1 12.88 10.52 63.65 63.65 0 0 1 -.28 27.37 13 13 0 0 1 -12.76 10h-119.54a8.07 8.07 0 0 0 -8.07 8.08v.33h132.39a17.71 17.71 0 0 0 17.32-13.71 86.19 86.19 0 0 0 .25-37.18 17.67 17.67 0 0 0 -17.35-13.82z" fill="none" stroke="#000" stroke-miterlimit="10"/><path d="m487.78 333.06h-191.67a20.83 20.83 0 0 0 -20.61 18.14c-2.59 20.25-8.17 60.06-16.41 99.14-12.53 59.4-24 83-31.46 92.31l9.79 7.8h189.37c27.07-33.94 44.33-149.54 50.5-197.66a8.29 8.29 0 0 1 8.2-7.22h4.59v-12.51zm-259.94 209.74h189.38" fill="none" stroke="#000" stroke-miterlimit="10"/><path d="m527.11 450.34c-8.24-39.08-13.82-78.89-16.42-99.14a20.82 20.82 0 0 0 -20.61-18.14h-4.59a20.82 20.82 0 0 0 -20.61 18.14c-2.6 20.25-8.18 60.06-16.42 99.14-12.52 59.4-24 83-31.45 92.31l9.78 7.8c27.07-33.94 44.33-149.54 50.5-197.66a8.29 8.29 0 0 1 8.2-7.22h4.59a8.29 8.29 0 0 1 8.2 7.22c6.17 48.12 23.43 163.72 50.5 197.66l9.78-7.8c-7.44-9.32-18.93-32.91-31.45-92.31z" fill="#f4f4f4"/><path d="m527.11 450.34c-8.24-39.08-13.82-78.89-16.42-99.14a20.82 20.82 0 0 0 -20.61-18.14h-4.59a20.82 20.82 0 0 0 -20.61 18.14c-2.6 20.25-8.18 60.06-16.42 99.14-12.52 59.4-24 83-31.45 92.31l9.78 7.8c27.07-33.94 44.33-149.54 50.5-197.66a8.29 8.29 0 0 1 8.2-7.22h4.59a8.29 8.29 0 0 1 8.2 7.22c6.17 48.12 23.43 163.72 50.5 197.66l9.78-7.8c-7.44-9.32-18.93-32.91-31.45-92.31z" fill="none" stroke="#000" stroke-miterlimit="10"/><path d="m406.36 500.94c11.88-40.3 20.42-92 25.39-127.2h-55.68c-3.06 21.39-7.64 50.18-13.63 78.59-4.22 20-8.31 35.92-12.18 48.61z" fill="#fff"/><path d="m464.81 401.77h46a0 0 0 0 1 0 0v4.49a6 6 0 0 1 -6 6h-34.05a6 6 0 0 1 -6-6v-4.49a0 0 0 0 1 .05 0z" fill="#e9e9e9"/><path d="m464.81 401.77h46a0 0 0 0 1 0 0v4.49a6 6 0 0 1 -6 6h-34.05a6 6 0 0 1 -6-6v-4.49a0 0 0 0 1 .05 0z" fill="none" stroke="#000" stroke-miterlimit="10"/><path d="m464.81 393.44h45.95" fill="none" stroke="#000" stroke-miterlimit="10"/><path d="m465.29 393.53v8.1a.5.5 0 0 0 1 0v-8.1a.5.5 0 0 0 -1 0z"/><path d="m470.18 393.53v8.1a.5.5 0 0 0 1 0v-8.1a.5.5 0 0 0 -1 0z"/><path d="m475.07 393.53v8.1a.5.5 0 0 0 1 0v-8.1a.5.5 0 0 0 -1 0z"/><path d="m480 393.53v8.1a.5.5 0 0 0 1 0v-8.1a.5.5 0 0 0 -1 0z"/><path d="m484.84 393.53v8.1a.5.5 0 0 0 1 0v-8.1a.5.5 0 0 0 -1 0z"/><path d="m489.73 393.53v8.1a.5.5 0 0 0 1 0v-8.1a.5.5 0 0 0 -1 0z"/><path d="m494.61 393.53v8.1a.5.5 0 0 0 1 0v-8.1a.5.5 0 0 0 -1 0z"/><path d="m499.5 393.53v8.1a.5.5 0 0 0 1 0v-8.1a.5.5 0 0 0 -1 0z"/><path d="m504.39 393.53v8.1a.5.5 0 0 0 1 0v-8.1a.5.5 0 0 0 -1 0z"/><path d="m509.28 393.53v8.1a.5.5 0 0 0 1 0v-8.1a.5.5 0 0 0 -1 0z"/><path d="m484.65 438.51-.32-1.3a.5.5 0 0 0 -.62-.35.51.51 0 0 0 -.35.61l.33 1.31a.5.5 0 1 0 1-.27z" fill="#e9e9e9"/><path d="m474.66 412.86q-.56 13.53-1.85 27t-3.37 27.14q-2 13.39-4.81 26.66t-6.28 26.49q-3.5 13.08-7.69 26c-.35 1.08-.7 2.15-1.06 3.22-.2.61.76.87 1 .26q4.31-12.9 7.9-26t6.46-26.45q2.88-13.36 5-26.88t3.52-26.87q1.4-13.53 2.05-27.14c.06-1.13.11-2.25.15-3.38 0-.65-1-.64-1 0z"/><path d="m483.33 412.21q.45 13.41.46 26.83t-.51 27q-.52 13.53-1.61 27t-2.84 26.96q-1.74 13.37-4.21 26.63c-.21 1.11-.43 2.23-.64 3.34-.12.63.84.9 1 .27q2.58-13.23 4.4-26.58t3-26.82q1.2-13.56 1.78-27.15t.65-27.16q.06-13.44-.34-26.87c0-1.13-.07-2.26-.11-3.4 0-.64-1-.64-1 0z"/><path d="m492.48 412.18c.5 7.46.87 14.93 1.22 22.41q.65 13.68 1.17 27.38.58 14.79 1.15 29.57t1.2 29.33c.39 8.77.8 17.53 1.3 26.3.06 1 .11 1.92.17 2.88 0 .64 1 .65 1 0-.51-8.58-.93-17.17-1.32-25.75q-.64-14.56-1.21-29.12-.59-14.83-1.15-29.66c-.37-9.27-.74-18.54-1.16-27.8-.35-7.72-.73-15.44-1.22-23.15l-.15-2.39c0-.64-1-.65-1 0z"/><path d="m500.65 412.53c.9 12.51 2.24 25 3.85 37.44 1.07 8.34 2.29 16.64 3.81 24.91 1.57 8.48 3.27 16.93 5 25.38q2.82 13.65 5.81 27.27c1.57 7.12 3.16 14.23 4.92 21.3l.45 1.76a.5.5 0 0 0 1-.27c-1.69-6.57-3.17-13.2-4.65-19.82q-3-13.5-5.81-27c-1.79-8.64-3.54-17.28-5.18-25.94-1.45-7.7-2.7-15.41-3.75-23.18-1.69-12.49-3.09-25-4.1-37.58-.11-1.41-.22-2.82-.32-4.23 0-.64-1-.65-1 0z"/><path d="m482 346.33 55.55-21.79 56.16-22 56.65-22.22 56.22-22.05 55.64-21.83 6.89-2.71c.15-.06.09-.3-.06-.24l-55.55 21.79-56.16 22-56.65 22.23-56.22 22.05-55.64 21.83-6.9 2.7c-.14.06-.08.3.07.24z"/><path d="m638.71 467.68 25.7 10.08 25.51 10 25.54 10 25.3 9.92 25.24 9.94 3.09 1.21c.15.06.21-.19.06-.24l-25.22-9.9-25.28-9.91-25.52-10-25.51-10-25.69-10.08-3.15-1.24c-.15-.06-.22.18-.07.24z"/><path d="m470.65 401.75 24.88 9.76 24.92 9.78 25.18 9.88 25.15 9.83 25.34 10 3.11 1.22c.15.05.22-.19.07-.25l-25.3-9.97-25.17-9.87-25.19-9.88-24.94-9.79-24.9-9.77-3.05-1.19c-.15-.06-.21.18-.06.24z"/><ellipse cx="780.75" cy="376.16" fill="none" rx="64.75" ry="144.9" stroke="#000" stroke-miterlimit="10" stroke-width=".25"/><path d="m404.92 219.16h53a.5.5 0 0 0 0-1h-53a.5.5 0 0 0 0 1z"/><path d="m459.38 217.77c-3.47-4.38-7.29-9.22-7.51-15.06-.18-4.74 2.34-9.78 7.53-10.21a6.34 6.34 0 0 1 6 2.63l.87-.51c-5.67-7.72-.56-19.19 7.56-22.81 5.25-2.35 11.27-2.09 16.64-.34a36.55 36.55 0 0 1 14.7 9.62c4.78 4.92 8.56 10.68 12.31 16.4a.51.51 0 0 0 .92-.39 6.71 6.71 0 0 1 2.48-6.23 8.25 8.25 0 0 1 6.83-1.93c5.25.89 8.83 5.56 10.56 10.29a55.11 55.11 0 0 1 2.25 9.58c.1.6.93.38 1-.13.3-2.85 3.57-4.07 6.07-3.93 3.35.2 6.06 2.86 8.45 4.93a31.05 31.05 0 0 0 8.52 5.37 30 30 0 0 0 9.66 2.18 28.86 28.86 0 0 0 11.21-1.55c.6-.21.34-1.18-.27-1a28.46 28.46 0 0 1 -25.35-3.33 50.81 50.81 0 0 1 -4.29-3.47c-2.42-2.07-5.24-4.26-8.6-4.17-2.93.08-6.07 1.77-6.4 4.94l1-.14c-1-6-2.22-12.46-6.74-16.9a13 13 0 0 0 -7.16-3.73 9.24 9.24 0 0 0 -7.12 2 7.78 7.78 0 0 0 -3 7.45l.92-.39c-6.76-10.3-14.18-21.41-26.2-26-5.49-2.09-11.74-2.69-17.34-.67a18.14 18.14 0 0 0 -10.38 9.81c-2.12 4.81-2.24 10.6 1 15 .37.5 1.22.05.87-.51-2.56-4-8.65-4-12-1-4.4 3.88-4 10.7-1.8 15.59a44.73 44.73 0 0 0 6.2 9.28c.4.51 1.1-.2.7-.7z"/><path d="m663.3 186.61h30.7a.5.5 0 0 0 0-1h-30.7a.5.5 0 0 0 0 1z"/><path d="m693.67 185.91a6 6 0 0 1 -.22-7 4.36 4.36 0 0 1 6.48-.64.51.51 0 0 0 .84-.22c.32-1.77.65-3.93 2-5.23 1.05-1 2.92-1.07 3.61.36.25.51 1.08.15.91-.39-1.64-5.46-2.51-13.49 3.32-16.87a5.49 5.49 0 0 1 3.46-.8 6.59 6.59 0 0 1 3.72 2.22 42 42 0 0 1 5.71 7.56 50.44 50.44 0 0 1 4.6 9.88c.17.5 1 .46 1-.13a4.36 4.36 0 0 1 4.45-4.43c3-.1 4.91 2.72 5.94 5.19a29.15 29.15 0 0 1 1.55 5.34c.12.58 1 .4 1-.13a4.13 4.13 0 0 1 2.96-3.62 3.35 3.35 0 0 1 4.13 1.8c.55 1 .88 2.13 1.43 3.15a6 6 0 0 0 2.13 2.25c2 1.2 4.45 1.36 6.68 1.59a74.41 74.41 0 0 0 9.79.37c.64 0 .65-1 0-1a74.06 74.06 0 0 1 -9.3-.32c-2.4-.23-5.46-.32-7.37-2s-1.8-4.3-3.52-5.92a4.37 4.37 0 0 0 -4.55-.76 5.14 5.14 0 0 0 -3.35 4.44l1-.14c-.73-3.41-1.73-7.3-4.45-9.72a5.86 5.86 0 0 0 -7.67-.18 4.78 4.78 0 0 0 -1.79 4.07l1-.14a51.67 51.67 0 0 0 -4.42-9.66 43.35 43.35 0 0 0 -6.21-8.29 7.73 7.73 0 0 0 -3.75-2.34 6.16 6.16 0 0 0 -3.83.46 9.94 9.94 0 0 0 -5.29 6.58c-1 3.88-.37 8 .77 11.8l.91-.39a3.17 3.17 0 0 0 -4.61-1c-2 1.27-2.46 4-2.86 6.11l.84-.22a5.37 5.37 0 0 0 -7.87.6 7 7 0 0 0 .2 8.47c.41.5 1.11-.21.7-.71z"/><path d="m296.7 274.67h18.91a.5.5 0 0 0 0-1h-18.91a.5.5 0 0 0 0 1z"/><path d="m315.16 273.32a5.62 5.62 0 1 1 8.24-7.32c.28.47 1.12.16.91-.39a8 8 0 0 1 2.62-8.81 7.29 7.29 0 0 1 9.36.48 7.54 7.54 0 0 1 2.66 5 .5.5 0 0 0 1 .13c.94-3 2.39-6.72 6.14-6.59s6.22 3.32 7.88 6.29c.92 1.65 1.73 3.37 2.77 5 .91 1.38 2.16 2.89 3.88 3.21a3.56 3.56 0 0 0 2.28-.4 5.5 5.5 0 0 1 1.4-.57 4.45 4.45 0 0 1 1.74.12c2.09.5 4.11 1.2 6.21 1.66a62.53 62.53 0 0 0 14.24 1.44.5.5 0 0 0 0-1 61.54 61.54 0 0 1 -13.27-1.25c-2.19-.45-4.31-1.09-6.46-1.69a5.53 5.53 0 0 0 -3-.18c-.91.25-1.67 1-2.65.93-2-.09-3.3-2.34-4.18-3.85-1-1.69-1.81-3.48-2.85-5.15-1.78-2.85-4.6-5.51-8.17-5.53-4.15 0-5.87 4-6.93 7.33l1 .14a9 9 0 0 0 -7.44-7.89 8.34 8.34 0 0 0 -8.93 5.29 8.44 8.44 0 0 0 -.23 6.19l.91-.39a7 7 0 0 0 -7.78-3 6.39 6.39 0 0 0 -4.4 7.07 6.51 6.51 0 0 0 2.37 4.4c.5.39 1.21-.31.71-.71z"/><path d="m628.93 437.12a50.51 50.51 0 0 1 4.41 9.63 76.45 76.45 0 0 1 2.66 8.25c.62 2.69.82 5.64-.43 8.2a8.82 8.82 0 0 1 -6.08 4.72 11.64 11.64 0 0 1 -8.81-1.25c-.55-.35-1 .52-.5.86 4.61 2.87 11.82 2.3 15.24-2.19 3.93-5.17 1.35-11.73-.53-17.16a57.64 57.64 0 0 0 -5.1-11.53c-.34-.55-1.2-.05-.86.5z"/><path d="m619.91 452.11a1 1 0 0 0 -.21.37.8.8 0 0 0 0 .15.45.45 0 0 0 0 .16.87.87 0 0 0 .06.32 1.08 1.08 0 0 0 .08.19 1.4 1.4 0 0 0 .13.18l.15.15a1 1 0 0 0 .17.12h.09.1a.61.61 0 0 0 .59-.15.62.62 0 0 0 .08-.73 2.09 2.09 0 0 0 -.24-.28l-.21-.21a.49.49 0 0 0 -.35-.15.51.51 0 0 0 -.5.5.53.53 0 0 0 .15.36l.17.18c.06.06.12.11.17.17l-.08-.1a.21.21 0 0 1 0 .06v-.12s0 0 0 0v-.14-.14-.12l.08-.1.11-.08.12-.05h.13.13-.06l.12.05-.08-.05.1.07a.61.61 0 0 1 -.16-.16l.08.1a.42.42 0 0 1 -.09-.14v.12a.57.57 0 0 1 0-.14v.14a.38.38 0 0 1 0-.15v.13a.56.56 0 0 1 0-.12v.12a.31.31 0 0 1 0-.1l-.08.11a.29.29 0 0 0 .1-.16.32.32 0 0 0 0-.19.51.51 0 0 0 -.15-.35.47.47 0 0 0 -.35-.15.53.53 0 0 0 -.36.15z"/><path d="m629.69 449.22a1 1 0 0 0 -.22.37v.15.16a.87.87 0 0 0 .06.32 1.11 1.11 0 0 0 .09.19.59.59 0 0 0 .13.18 1 1 0 0 0 .14.15 1.77 1.77 0 0 0 .17.12h.09.1a.62.62 0 0 0 .6-.15.6.6 0 0 0 .07-.73 1.27 1.27 0 0 0 -.24-.28l-.2-.21a.5.5 0 0 0 -.71 0 .46.46 0 0 0 -.14.35.48.48 0 0 0 .14.35l.18.19.17.17-.08-.1v.06-.12s0 0 0 0v-.14-.14-.12s0 0 0 0l.07-.1.1-.08h.12.13.14-.06l.12.06-.08-.06.1.08a.85.85 0 0 1 -.17-.16l.08.1a.64.64 0 0 1 -.08-.14l.05.12a.57.57 0 0 1 0-.14v.13a.61.61 0 0 1 0-.14v.13a.53.53 0 0 1 0-.12l-.05.12a.33.33 0 0 1 .06-.1l-.08.1a.44.44 0 0 0 .1-.16.41.41 0 0 0 0-.19.5.5 0 0 0 -.14-.35.5.5 0 0 0 -.71 0z"/><path d="m612.3 459.6a6.32 6.32 0 0 1 -4.69-2.43 2.81 2.81 0 0 1 -.58-2.75 2.11 2.11 0 0 1 2.11-1.13 3.17 3.17 0 0 1 2.44 1.57c.34.55 1.2.05.86-.5a4.26 4.26 0 0 0 -2.75-2 3.36 3.36 0 0 0 -3.12.95c-1.8 2.07.11 4.85 2 6.08a7.69 7.69 0 0 0 3.77 1.22c.65 0 .64-1 0-1z"/><path d="m608.53 455.43a.69.69 0 0 1 .81-.21 2.23 2.23 0 0 1 .85.64 6 6 0 0 1 1.16 1.82c0 .15.3.09.24-.06a6.06 6.06 0 0 0 -1.41-2.12 1.75 1.75 0 0 0 -1-.57.87.87 0 0 0 -.86.38c-.09.13.13.26.21.12z"/><path d="m609.86 456.4s0 0 0 0h.1.11a.74.74 0 0 1 .48.24c.12.11.3-.06.18-.17a.91.91 0 0 0 -.7-.31.53.53 0 0 0 -.51.44c0 .06.07.12.13.12a.13.13 0 0 0 .12-.12z"/><path d="m625.64 450.82a26.07 26.07 0 0 1 2.08 4.82c.2.61 1.16.35 1-.27a27.25 27.25 0 0 0 -2.19-5.05.5.5 0 0 0 -.86.5z"/><path d="m618.16 450.18a3.41 3.41 0 0 1 .38-.38h.05c.07-.06-.07.05 0 0l.11-.08.24-.14.22-.13.13-.05a4.77 4.77 0 0 1 .54-.15.5.5 0 1 0 -.26-1 3.82 3.82 0 0 0 -2.14 1.23.5.5 0 0 0 .71.71z"/><path d="m628.61 447.57a3.41 3.41 0 0 1 .39-.37c.07-.06-.06 0 0 0l.11-.08.23-.15.23-.12.12-.05.54-.15a.5.5 0 0 0 .35-.62.51.51 0 0 0 -.61-.35 3.9 3.9 0 0 0 -2.13 1.24.5.5 0 0 0 0 .7.48.48 0 0 0 .7 0z"/><path d="m625.4 459a5.78 5.78 0 0 0 2.57.38.51.51 0 0 0 .5-.5.51.51 0 0 0 -.5-.5 4.3 4.3 0 0 1 -.62 0h-.31-.2a5.34 5.34 0 0 1 -1.17-.32.52.52 0 0 0 -.62.35.52.52 0 0 0 .35.62z"/><path d="m782.4 358.74 4.54 9.19a1.84 1.84 0 0 0 1.39 1l10.14 1.47a1.85 1.85 0 0 1 1 3.15l-7.34 7.16a1.85 1.85 0 0 0 -.53 1.63l1.74 10.1a1.85 1.85 0 0 1 -2.68 1.95l-9.07-4.77a1.87 1.87 0 0 0 -1.72 0l-9.07 4.77a1.85 1.85 0 0 1 -2.68-1.95l1.73-10.1a1.85 1.85 0 0 0 -.53-1.63l-7.32-7.15a1.85 1.85 0 0 1 1-3.15l10.14-1.47a1.84 1.84 0 0 0 1.39-1l4.53-9.19a1.85 1.85 0 0 1 3.34-.01z" fill="#e9e9e9"/><path d="m611.66 453.34a44.1 44.1 0 0 0 1.13-12.12 163.93 163.93 0 0 0 18.28-.54c3.58-.31 7.27-.78 10.36-2.61 3.26-1.93 5.54-5.19 8.7-7.26 8.39-5.49 21-1.58 28.46-8.23 2.48-2.2 4.09-5.35 6.87-7.15 3.5-2.25 8.07-1.89 11.95-3.41a3.46 3.46 0 0 0 1.55-1c.72-.95.45-2.3.07-3.43a27.11 27.11 0 0 0 -15.51-16.34c-2-.77-4.06-1.34-5.73-2.64-2.48-1.93-3.56-5.11-5.42-7.65a15.18 15.18 0 0 0 -18.54-4.44c-1.64.83-3.17 2-5 2.32-4.06.74-8-2.9-12.05-2.16-2.58.48-4.55 2.67-5.66 5.05s-1.56 5-2.36 7.51c-4.46 14.07-19.37 23.06-23.28 37.29-.53 1.92-.84 3.89-1.55 5.75-.62 1.58-1.51 3-2.21 4.59-4.28 9.37.49 19.29 9.41 24.44.26-1 .06.06.32-1-1.72-.44-3.75-1.11-4.71-2.6a4.38 4.38 0 0 1 .06-5c1.11-1.38 3.68-.76 4.84.59"/><path d="m612.14 453.47a45.05 45.05 0 0 0 1.15-12.25l-.5.5a162.54 162.54 0 0 0 17.79-.5 37 37 0 0 0 7.55-1.19 16.85 16.85 0 0 0 6.25-3.52 73.29 73.29 0 0 1 5.5-4.93 17.78 17.78 0 0 1 5.81-2.6c4.15-1.09 8.48-1.17 12.71-1.8 4.06-.6 8.12-1.81 11.12-4.78 1.67-1.65 2.94-3.66 4.64-5.28a12.31 12.31 0 0 1 6.37-3 41.91 41.91 0 0 0 7-1.61 3.34 3.34 0 0 0 2.23-2 5.28 5.28 0 0 0 -.32-3.23 27.68 27.68 0 0 0 -12.55-15 67.36 67.36 0 0 0 -6.49-2.78 9.77 9.77 0 0 1 -3.12-2 15 15 0 0 1 -2.06-2.82 28.6 28.6 0 0 0 -3.71-5.51 15.94 15.94 0 0 0 -10.77-4.63 14.87 14.87 0 0 0 -6 1c-2.22.89-4.2 2.74-6.66 2.89-2.27.14-4.42-.93-6.52-1.63a8.73 8.73 0 0 0 -6.26-.19c-4.76 2-5.59 7.69-6.91 12.07-2.51 8.34-8.69 14.83-14 21.46a60 60 0 0 0 -7.12 10.47 31.6 31.6 0 0 0 -2.26 5.79c-.37 1.32-.63 2.68-1 4a21 21 0 0 1 -1.59 3.94 23.38 23.38 0 0 0 -2.51 6.6 17.68 17.68 0 0 0 0 6.07 20.35 20.35 0 0 0 5.84 10.8 25 25 0 0 0 5.15 3.93.5.5 0 0 0 .73-.3l.09-.32c.06-.18 0-.13-.17.13h-.49a.49.49 0 0 0 .51 0c.26-.13.31-.53.38-.79a.5.5 0 0 0 -.35-.61 10.66 10.66 0 0 1 -3.44-1.4 4 4 0 0 1 -1.65-3.34c0-1.13.55-2.46 1.8-2.62a3.57 3.57 0 0 1 3 1.2c.44.48 1.14-.23.71-.71a4.56 4.56 0 0 0 -3.85-1.47 3.2 3.2 0 0 0 -2.59 2.92 5.11 5.11 0 0 0 1.38 4.31 9.51 9.51 0 0 0 4.38 2.07l-.35-.61c0 .1-.05.21-.08.32s0 .13.16-.13h.49a.47.47 0 0 0 -.5 0c-.27.13-.32.53-.38.79l.73-.3a22.56 22.56 0 0 1 -8.82-9 16.89 16.89 0 0 1 -1.43-11.88c.63-2.44 2-4.52 3-6.81s1.36-4.86 2.1-7.28a37.69 37.69 0 0 1 5.7-10.87c4.82-6.73 10.92-12.58 14.89-19.92a33.26 33.26 0 0 0 2.41-5.55c.81-2.51 1.23-5.17 2.36-7.57a8.43 8.43 0 0 1 4.49-4.58c2.13-.75 4.34 0 6.36.74s4.05 1.52 6.2 1.24c2.39-.32 4.24-2 6.43-2.88a14.79 14.79 0 0 1 11.56.43 14 14 0 0 1 4.77 3.58 51.15 51.15 0 0 1 3.55 5.58 11.07 11.07 0 0 0 5 4.31c2.15.93 4.36 1.59 6.42 2.73a26.81 26.81 0 0 1 9.4 8.85 24.58 24.58 0 0 1 2.81 5.87c.34 1.1.6 2.49-.52 3.23a10 10 0 0 1 -3.33 1.16c-2.27.51-4.61.72-6.82 1.45a12.35 12.35 0 0 0 -5.43 3.65 48.5 48.5 0 0 1 -4.53 5.07 15.19 15.19 0 0 1 -5.25 2.75c-7.77 2.43-16.92.63-23.76 5.81-1.85 1.4-3.41 3.11-5.15 4.64a15.82 15.82 0 0 1 -6.47 3.55 41.75 41.75 0 0 1 -7.63 1.08c-2.84.22-5.68.36-8.52.44s-5.61.07-8.41 0a.51.51 0 0 0 -.5.5 44.26 44.26 0 0 1 -1.12 12c-.14.63.82.9 1 .27z"/><path d="m631.22 440a80.58 80.58 0 0 1 3.5 9.22 6.48 6.48 0 0 1 2.29-4.33 19.43 19.43 0 0 1 4.06-2.77 16.11 16.11 0 0 0 4-2.89c2-2.2 2.77-5.34 4.68-7.64a9.35 9.35 0 0 1 3.65-2.66 18.25 18.25 0 0 0 3.62-1.49 2.61 2.61 0 0 0 -1.47-.54 18.27 18.27 0 0 0 -7.75.94 53 53 0 0 0 -7.21 3.15 29.88 29.88 0 0 0 -7.15 4.48 8.48 8.48 0 0 0 -2.23 3.05"/><path d="m630.79 440.22a83.84 83.84 0 0 1 3.45 9.1.5.5 0 0 0 1-.13c0-2.16 1.88-4 3.54-5.11s3.66-2.05 5.33-3.34a13.21 13.21 0 0 0 3.59-4.71 16.6 16.6 0 0 1 3.27-5 9.15 9.15 0 0 1 3.14-1.85 14.34 14.34 0 0 0 3.16-1.31.5.5 0 0 0 .1-.79 4.17 4.17 0 0 0 -2.51-.75 15.39 15.39 0 0 0 -3.11.09 24.82 24.82 0 0 0 -6.15 1.68c-1.93.78-3.79 1.71-5.65 2.64a37.94 37.94 0 0 0 -5.17 3 11.34 11.34 0 0 0 -4.06 4.65c-.24.59.73.85 1 .26.88-2.11 2.88-3.65 4.76-4.84a62.44 62.44 0 0 1 6.05-3.21 36.52 36.52 0 0 1 6.77-2.67 18.23 18.23 0 0 1 3.75-.61 14.12 14.12 0 0 1 1.84 0 3.16 3.16 0 0 1 1.81.46l.1-.79a14.66 14.66 0 0 1 -3.12 1.29 9.91 9.91 0 0 0 -2.71 1.47 13.6 13.6 0 0 0 -3.69 5 14.49 14.49 0 0 1 -3.63 5.14c-1.79 1.43-4 2.3-5.78 3.67s-3.55 3.3-3.6 5.66l1-.14a84 84 0 0 0 -3.55-9.33c-.27-.58-1.13-.08-.86.5z"/><path d="m611.6 460.15-2.53 12.27c-.12.63.84.9 1 .27l2.52-12.28c.13-.63-.83-.89-1-.26z"/><path d="m624.7 469q-.76 3.38-1.38 6.79c-.11.63.85.9 1 .26.41-2.27.87-4.54 1.39-6.79.14-.62-.82-.89-1-.26z"/><path d="m620.82 467.42c1.12 1.69 2.26 3.36 3.42 5a8.38 8.38 0 0 1 .43-3.26 2.77 2.77 0 0 1 -1.49-.36 7.81 7.81 0 0 0 -1.28-.8"/><path d="m620.39 467.67q1.68 2.54 3.42 5c.26.37 1 .28.93-.25a8.29 8.29 0 0 1 .41-3.13.5.5 0 0 0 -.48-.63 2.37 2.37 0 0 1 -1.37-.38 7.81 7.81 0 0 0 -1.27-.77.5.5 0 0 0 -.61.35.51.51 0 0 0 .35.62 11.63 11.63 0 0 1 1.23.79 3.34 3.34 0 0 0 1.67.39l-.48-.63a8.84 8.84 0 0 0 -.45 3.39l.93-.26q-1.74-2.49-3.42-5c-.35-.53-1.22 0-.86.5z"/><path d="m609.34 471.48c-5.34-.28-11.21.5-15.86 3.3s-7.53 8-8.51 13.37c-1.21 6.6.09 13.35 1.78 19.75 1.13 4.3 2.34 8.59 3.78 12.8 3 8.76 7 17.67 13.57 24.34a30 30 0 0 0 11 7.21 27.63 27.63 0 0 0 18.41-.14c6-2.07 11.16-5.74 15.82-9.91a149.15 149.15 0 0 0 13.92-14.63q1.62-1.89 3.21-3.81c.41-.49-.3-1.2-.71-.71-4.24 5.11-8.59 10.13-13.29 14.81-4.35 4.33-9 8.41-14.53 11.25s-12 4.42-18.26 3.32a27 27 0 0 1 -12.63-6c-6.91-5.81-11.2-14.23-14.35-22.54-1.57-4.17-2.88-8.43-4.07-12.73-1.56-5.62-3.1-11.33-3.17-17.2-.07-5.63 1.35-11.6 5.32-15.78 3.8-4 9.53-5.42 14.86-5.71q1.83-.09 3.66 0c.65 0 .64-1 0-1z"/><path d="m620.22 527.66a54.92 54.92 0 0 1 7.32-2.26c3.63-1 7.28-1.87 10.93-2.77s7.11-1.74 10.66-2.65a52.7 52.7 0 0 0 8-2.47 10.22 10.22 0 0 0 3.34-2.2 8.31 8.31 0 0 0 1.78-3.07c.74-2.12 1-4.94 3.07-6.25.55-.34 0-1.21-.5-.86-1.8 1.13-2.43 3.15-3 5.09a15.87 15.87 0 0 1 -1.06 3 6.73 6.73 0 0 1 -2.59 2.65c-2.55 1.53-5.64 2.2-8.49 2.94-7.17 1.85-14.39 3.5-21.55 5.4a61.3 61.3 0 0 0 -8.47 2.59c-.58.26-.08 1.12.51.87z"/><path d="m667.34 509.93a28 28 0 0 1 8.56-3.67c.62-.15.36-1.11-.27-1a28.61 28.61 0 0 0 -8.8 3.77c-.54.35 0 1.21.51.86z"/><path d="m674.2 511.92a8.93 8.93 0 0 0 1.78-1.47.5.5 0 0 0 -.71-.71 9.15 9.15 0 0 1 -.78.75l-.21.16h-.06l-.1.08-.46.31a.5.5 0 0 0 .51.86z"/><path d="m676 514.78 1.54-1.53a.5.5 0 0 0 0-.71.52.52 0 0 0 -.71 0l-1.54 1.53a.5.5 0 0 0 0 .71.52.52 0 0 0 .71 0z"/><path d="m666.38 523.92c1.39-1.76 3.51-2.55 5.56-3.25a14.42 14.42 0 0 0 5.71-3 .5.5 0 0 0 -.71-.71c-3.14 3.14-8.43 2.66-11.26 6.26-.4.5.31 1.21.7.71z"/><path d="m624.59 473.36c5.74-2.32 12.18-1.25 17.6 1.41s10 6.74 14.53 10.73c2.64 2.33 5.28 4.65 8.13 6.73.52.38 1-.49.5-.86-9.85-7.21-18.17-18.37-31-20.09a19.63 19.63 0 0 0 -10 1.12c-.59.24-.34 1.21.26 1z"/><path d="m630.34 472.25a33.27 33.27 0 0 1 3.94 5.68c1.69 2.8 3.28 5.67 4.81 8.55q2.17 4 4.18 8.19a45.93 45.93 0 0 1 3.31 8.21c1.55 5.83-.13 11.65-1.83 17.24-.19.62.77.88 1 .27 1.51-4.95 3-10.12 2.33-15.35a34.07 34.07 0 0 0 -3.35-9.72c-2.74-5.78-5.74-11.48-9-17a38.16 38.16 0 0 0 -4.64-6.8c-.45-.47-1.15.24-.71.71z"/><path d="m600.41 473.05a90.37 90.37 0 0 1 12.37 20.63q1.38 3.13 2.53 6.35c.21.6 1.18.34 1-.26a97.22 97.22 0 0 0 -11.06-21.92c-1.29-1.89-2.65-3.72-4.1-5.5-.4-.5-1.1.21-.7.7z"/><path d="m611.22 502.71a14 14 0 0 1 5.27-2 33.63 33.63 0 0 1 5.92-.65c2.2-.06 4.39.3 6.58.19a38.12 38.12 0 0 0 7.4-1.44c2.74-.71 5.58-1.37 8.42-.9.63.11.9-.86.27-1-5.25-.88-10.09 1.71-15.22 2.23-2.34.24-4.66-.16-7-.13a34.78 34.78 0 0 0 -6 .58 15.16 15.16 0 0 0 -6.12 2.26c-.52.37 0 1.23.5.86z"/><path d="m610 500.76a171 171 0 0 0 7.18 20.81c.8 1.87 1.66 3.7 2.58 5.51.3.57 1.16.07.87-.51-4.24-8.25-7.13-17.18-9.66-26.08a.5.5 0 0 0 -1 .27z"/><path d="m613.52 508.31a25.58 25.58 0 0 1 7-2.17 32.4 32.4 0 0 1 6.81.43 14.7 14.7 0 0 0 3.38 0 11.35 11.35 0 0 0 2.92-.89 6 6 0 0 1 1.75-.51 4.11 4.11 0 0 1 1.76.36 2.77 2.77 0 0 0 2.43 0c.51-.28 1-.65 1.48-.92a7.5 7.5 0 0 1 1.77-.64 8 8 0 0 1 3.94.07.12.12 0 0 0 .06-.24 8.33 8.33 0 0 0 -5.71.5 10.12 10.12 0 0 0 -1.31.79 2.26 2.26 0 0 1 -2.1.32 5.3 5.3 0 0 0 -2.76-.48c-1.12.22-2.1.85-3.2 1.14a11.32 11.32 0 0 1 -3.53.26c-2.33-.14-4.65-.69-7-.56a23.61 23.61 0 0 0 -7.72 2.24c-.14.06-.08.3.07.24z"/><path d="m615.56 516.12a29.6 29.6 0 0 1 6.61-1.06c1.94-.08 4 .3 5.91-.18 1-.26 1.84-.93 2.89-1a19.34 19.34 0 0 1 3.13.18 15.83 15.83 0 0 0 5.84-.69c2.19-.71 4.44-2.49 6.83-1.57.15.05.21-.19.07-.24-1.84-.71-3.65.16-5.31.91a15.29 15.29 0 0 1 -6.53 1.33c-1 0-2.09-.18-3.15-.23a5.09 5.09 0 0 0 -2.57.56c-2.07 1-4.29.62-6.52.66a29.8 29.8 0 0 0 -7.27 1.09c-.15 0-.08.28.07.24z"/><path d="m618.38 522.66c2.17.59 4.35.05 6.53-.17 2.39-.25 4.72.39 7.1.2 2.1-.16 3.91-1.25 5.85-2 2.23-.81 4.68-.69 7-.78.16 0 .16-.26 0-.25-2.21.09-4.57 0-6.69.66s-3.82 1.83-5.94 2.06c-2.3.25-4.58-.41-6.88-.23s-4.63.85-6.93.23a.12.12 0 0 0 -.06.24z"/><path d="m647.7 507.44c4.2 2.59 8.56 5.19 13.56 5.75.64.08.64-.93 0-1-4.8-.54-9-3.13-13-5.61a.5.5 0 0 0 -.51.86z"/><path d="m666.07 497.92c-1.31-11.46 3.16-22.56 3-34 0-2.61-.24-5.68 1.63-7.76.43-.48-.28-1.19-.71-.71-1.63 1.82-1.92 4.27-1.93 6.62 0 2.8 0 5.56-.31 8.35-.63 5.9-2 11.7-2.61 17.6a44.71 44.71 0 0 0 -.07 9.88c.07.63 1.07.64 1 0z"/><path d="m673.26 453.27a3.87 3.87 0 0 1 -.4 3.65.53.53 0 0 0 .18.69 2.75 2.75 0 0 1 1 2.53.52.52 0 0 0 .35.61.51.51 0 0 0 .62-.35 3.83 3.83 0 0 0 -1.51-3.66l.18.69a4.86 4.86 0 0 0 .4-4.67.5.5 0 0 0 -.68-.18.52.52 0 0 0 -.18.69z"/><path d="m674.45 455.91a29 29 0 0 0 4.37-5 .5.5 0 1 0 -.86-.5 28.37 28.37 0 0 1 -4.21 4.81c-.48.43.23 1.14.7.71z"/><path d="m679 456.17 1.67-1.82a.5.5 0 0 0 0-.71.51.51 0 0 0 -.7 0l-1.68 1.82a.5.5 0 1 0 .71.71z"/><path d="m681.7 458.41a8.39 8.39 0 0 0 .56-.77 6.11 6.11 0 0 0 .42-.85.51.51 0 0 0 0-.38.5.5 0 0 0 -.3-.23.53.53 0 0 0 -.39.05l-.1.08a.54.54 0 0 0 -.13.22v-.12a5.15 5.15 0 0 1 -.67 1.16l.08-.1-.16.19a.5.5 0 0 0 -.14.35.54.54 0 0 0 .14.36.52.52 0 0 0 .36.14.47.47 0 0 0 .35-.14z"/><path d="m684.71 459.25a13.58 13.58 0 0 1 -2.61 4.33c-1 1.08-2.33 1.94-2.27 3.57a19.63 19.63 0 0 0 .37 2.52c.16.94.34 1.87.51 2.81.36 1.87.75 3.73 1.15 5.6 1.54 7.3 3.21 14.63 3.48 22.11.12 3.34.11 7.27-2.44 9.79-.46.45.25 1.16.71.71 2.16-2.14 2.7-5.25 2.76-8.17a64.66 64.66 0 0 0 -.87-10.94c-1.14-7.53-3.1-14.91-4.37-22.41-.16-.92-.58-2.14-.08-3a13.91 13.91 0 0 1 1.89-2 14.78 14.78 0 0 0 2.73-4.62c.23-.6-.74-.86-1-.26z"/><path d="m607.64 548.48c-.53 4.17-2.2 8-3.7 11.94a40.52 40.52 0 0 0 -2.84 11.34 42.55 42.55 0 0 0 4.6 22.24 52.09 52.09 0 0 0 14.86 17.72c6.29 4.93 13.24 9 19.15 14.43 3.07 2.81 6.1 5.9 7.11 10.07a26.22 26.22 0 0 1 .53 6.62c0 2.3-.11 4.59-.22 6.89-.41 8.92-1.2 17.82-1.48 26.75a119.43 119.43 0 0 0 1.63 26.1c.41 2.12.91 4.23 1.5 6.31a31.7 31.7 0 0 0 2 5.54 7.51 7.51 0 0 0 3.73 3.62 15.94 15.94 0 0 0 5.48 1c15.92.81 31.82-3.2 45.91-10.53 12-6.24 22.56-15 31.79-24.78a109.66 109.66 0 0 0 12.17-15.26 58 58 0 0 0 7.89-17 30.23 30.23 0 0 0 -.17-17c-2.18-6.62-7-11.82-12.14-16.38-3-2.67-6.12-5.17-9.23-7.68s-6.22-5.16-9.3-7.79c-7.22-6.17-14.53-12.25-21.86-18.3-14.43-11.91-28.87-23.81-43.63-35.32q-5.29-4.12-10.66-8.19c-.51-.38-1 .48-.5.87 14.69 11.09 29 22.72 43.2 34.39 7.19 5.91 14.38 11.81 21.52 17.78 6.64 5.55 13.12 11.3 19.85 16.73 6 4.81 12.21 9.52 17 15.54a26.78 26.78 0 0 1 6.06 16.64c0 6-1.82 11.88-4.4 17.25a83.61 83.61 0 0 1 -10.49 16.12 129 129 0 0 1 -27.68 25.6c-13.09 8.81-28.29 14.71-44.06 16.09a81.25 81.25 0 0 1 -11.88.17 10.75 10.75 0 0 1 -5.66-1.48c-1.68-1.18-2.46-3.19-3.08-5.06a86.81 86.81 0 0 1 -4-25.45c-.22-8.79.39-17.58.95-26.35.28-4.34.55-8.69.7-13 .14-4.12.49-8.57-1-12.49-1.42-3.61-4.3-6.42-7.12-9a101.41 101.41 0 0 0 -9.21-7.17c-6.37-4.52-12.94-8.88-18-14.9a46.26 46.26 0 0 1 -10.11-20.66 38.8 38.8 0 0 1 -.58-11.38 43.8 43.8 0 0 1 3.18-11.49 46.65 46.65 0 0 0 3.3-11.08c.09-.64-.92-.63-1 0z"/><path d="m605.73 558.34a17.39 17.39 0 0 0 2.76-9.2c1.62 1.84 6 3.15 8.43 3.65a32.51 32.51 0 0 0 11.87.65c8.18-.91 15.1-6.29 21.21-11.81a17.85 17.85 0 0 1 -4.55 6 52 52 0 0 1 -41.14 13.73c.37-1 1.26-2.43 1.63-3.38"/><path d="m606.16 558.6a18.14 18.14 0 0 0 2.83-9.46l-.85.35c1.67 1.84 4.47 2.69 6.79 3.33a36.7 36.7 0 0 0 8.77 1.38 29.86 29.86 0 0 0 9.54-1.18 33.41 33.41 0 0 0 8.5-4.17 73.88 73.88 0 0 0 8.61-6.87l-.84-.49c-1.34 3.23-4.15 5.73-6.78 7.92a50.58 50.58 0 0 1 -8.36 5.63 51.51 51.51 0 0 1 -18.89 5.83 53.47 53.47 0 0 1 -11.17 0l.48.63c.47-1.16 1.16-2.22 1.64-3.38.24-.6-.73-.86-1-.27-.47 1.16-1.16 2.22-1.64 3.38-.13.33.2.61.49.64a53.61 53.61 0 0 0 20.39-1.83 52 52 0 0 0 18.11-9.43c3-2.43 6.15-5.22 7.67-8.87.2-.5-.51-.79-.84-.49-4.58 4.14-9.54 8.22-15.41 10.36s-12.08 1.91-18 .5a28.67 28.67 0 0 1 -4-1.27 9.13 9.13 0 0 1 -3.37-2.08.5.5 0 0 0 -.85.36 17.15 17.15 0 0 1 -2.69 9c-.35.55.52 1 .86.51z"/><path d="m657.41 718.78c3 7.66 7.31 14.66 11.16 21.89a91 91 0 0 1 5.19 11.21c.71 1.93 1.29 3.89 1.83 5.88a24.37 24.37 0 0 0 2.15 5.8 5.11 5.11 0 0 0 1.71 2 3.93 3.93 0 0 0 2.66.3 51 51 0 0 0 6.35-1.52 58.44 58.44 0 0 0 11.81-5c1.41-.79 3.17-1.81 2.53-3.73-.57-1.74-2.33-2.6-3.95-3.15a32.06 32.06 0 0 1 -5.26-1.73 7.16 7.16 0 0 1 -3.29-4.28 40.57 40.57 0 0 1 -1.23-5.77l-1.24-7-2.5-14.07-.63-3.61c-.11-.63-1.07-.36-1 .27 1.59 9 3.16 18 4.79 26.94.59 3.3 1.56 6.82 4.81 8.42a34.35 34.35 0 0 0 5 1.62 7.41 7.41 0 0 1 2.52 1.2c.63.52 1.34 1.4 1 2.27s-1.46 1.31-2.2 1.73-1.78 1-2.69 1.41a57.54 57.54 0 0 1 -5.78 2.45 58.55 58.55 0 0 1 -5.93 1.78c-1 .25-2 .47-3.08.66a2.77 2.77 0 0 1 -2.9-.71 14.26 14.26 0 0 1 -2.41-5.42c-.55-1.91-1-3.84-1.68-5.72a81.59 81.59 0 0 0 -4.66-10.68c-3.59-7-7.8-13.66-11-20.87-.42-1-.81-1.91-1.19-2.87-.23-.59-1.2-.34-1 .27z"/><path d="m758 642.75 16.39 15.67c2.11 2 4.43 4.14 7.3 4.94s6-.15 8.76-.88c1.25-.33 2.74-.84 3.87.06a3.63 3.63 0 0 1 .93 3.93 10 10 0 0 1 -2.85 4 39 39 0 0 1 -3.34 3c-1.08.85-2.21 1.63-3.32 2.44s-2.42 2-3.72 2.78a3.41 3.41 0 0 1 -2.39.62 7.65 7.65 0 0 1 -2.48-1c-1.5-.84-3-1.65-4.53-2.43a147.36 147.36 0 0 0 -21.85-9.08c-.61-.19-.87.77-.26 1a145.5 145.5 0 0 1 20.57 8.45q2.4 1.2 4.75 2.5c1.44.79 3 1.85 4.72 1.63s2.84-1.38 4.07-2.32 2.43-1.79 3.65-2.68a31.3 31.3 0 0 0 6.73-6.38c1.61-2.18 2.26-5.82-.43-7.49a4.72 4.72 0 0 0 -3.67-.19c-1.58.39-3.16.82-4.77 1.1a9.31 9.31 0 0 1 -4.66-.17 13.4 13.4 0 0 1 -4.13-2.49c-1.49-1.23-2.86-2.6-4.25-3.94l-4.87-4.65-9.54-9.17c-.47-.44-1.18.27-.71.71z"/><path d="m684.77 720.68a14.27 14.27 0 0 1 -4.66 2.69 117.33 117.33 0 0 1 -14.61 4.47l-2 .52a.68.68 0 0 1 -.95-.38c-1.77-2.87-3.58-5.84-4.14-9.17a64 64 0 0 0 13.91-.28 48.69 48.69 0 0 0 4.8-.85 16.41 16.41 0 0 1 2.28-.45c1.25-.12 2.62 0 3.66-.65.21-.14.5-.3.66-.11a.54.54 0 0 1 .08.19l.93 3.94"/><path d="m684.41 720.33a16 16 0 0 1 -5.32 2.91c-2 .79-4.13 1.46-6.22 2.08s-4.3 1.21-6.46 1.77l-1.48.38c-.47.13-1.29.51-1.74.33s-.65-.83-.88-1.2-.57-1-.85-1.43a20.36 20.36 0 0 1 -2.55-6.5l-.48.64a64.28 64.28 0 0 0 15.37-.49c1.24-.19 2.48-.43 3.7-.71a22.17 22.17 0 0 1 3.53-.47 5.8 5.8 0 0 0 1.49-.24 4.17 4.17 0 0 0 .65-.29l.3-.18c-.16-.21-.19-.18-.08.09a9.31 9.31 0 0 0 .44 1.86l.44 1.85c.15.63 1.11.36 1-.27l-.71-3c-.15-.61-.2-1.66-1.09-1.56a2.76 2.76 0 0 0 -.85.4 3.81 3.81 0 0 1 -1.45.35 23.47 23.47 0 0 0 -2.65.22c-2.13.4-4.22.93-6.38 1.2s-4.22.42-6.34.48a66.48 66.48 0 0 1 -7.33-.23c-.35 0-.53.34-.48.63a20.36 20.36 0 0 0 2.38 6.25c.55 1 1.14 2 1.75 2.95a1.37 1.37 0 0 0 .92.76 4.24 4.24 0 0 0 1.53-.29c4.76-1.24 9.54-2.44 14.16-4.15a18.81 18.81 0 0 0 6.43-3.42c.47-.44-.24-1.15-.71-.71z"/><path d="m758.7 643.16c1.48 1.26 3 2.63 3.61 4.49a9.49 9.49 0 0 1 .23 3.28c-.34 6.19-1.77 12.43-5 17.68a.6.6 0 0 1 -.22.25.64.64 0 0 1 -.47 0l-6.39-1.62c.63-.92 1.27-1.84 1.85-2.79 3.39-5.53 5-11.94 6.55-18.23a4.4 4.4 0 0 0 .1-2.61"/><path d="m758.35 643.51c1.5 1.28 3.14 2.68 3.58 4.7a11.59 11.59 0 0 1 .07 3.38c-.07 1.07-.17 2.14-.32 3.2a35.11 35.11 0 0 1 -3.95 12.44c-.16.29-.33.57-.5.85s-.29.3-.65.21l-2-.51-4-1 .3.73a44.93 44.93 0 0 0 3.44-5.68 47.67 47.67 0 0 0 2.39-5.95c.68-2 1.25-4.1 1.79-6.18l.78-3.12a5.4 5.4 0 0 0 .15-3.08c-.2-.61-1.17-.35-1 .27a5.83 5.83 0 0 1 -.31 3.19c-.25 1-.5 2-.77 3-.51 2-1.06 3.93-1.71 5.85a46.29 46.29 0 0 1 -2.32 5.7 45.15 45.15 0 0 1 -3.32 5.49.49.49 0 0 0 .29.73l4 1 1.89.48a1.66 1.66 0 0 0 1.38 0 3.37 3.37 0 0 0 .86-1.23c.32-.56.63-1.14.92-1.73a31.52 31.52 0 0 0 1.36-3.23 37.61 37.61 0 0 0 1.8-7.09c.19-1.17.33-2.34.43-3.51a19.47 19.47 0 0 0 .08-3.74c-.29-2.58-2.09-4.31-4-5.91-.48-.42-1.19.29-.7.7z"/><path d="m603.49 585.39a5 5 0 0 1 4.58-.95 6.23 6.23 0 0 1 3.77 3c1.52 2.68 1.91 7.1-.6 9.33-.12.1.06.28.18.17 2.11-1.87 2.17-5.21 1.42-7.74a6.85 6.85 0 0 0 -5.46-5.18 5.08 5.08 0 0 0 -4.07 1.16c-.12.11.05.28.18.18z"/><path d="m613.3 563.1a5.42 5.42 0 1 0 10.49 2.74 11.46 11.46 0 0 0 -.11-5.58c0-.16-.28-.09-.24.07.63 2.81.79 6.42-1.86 8.29a5.15 5.15 0 0 1 -7.16-1.08 5.31 5.31 0 0 1 -.88-4.38.12.12 0 0 0 -.24-.06z"/><path d="m635.17 575.14a9 9 0 0 0 -4.72 5c-.83 2.15-1 5.16 1.13 6.58a9 9 0 0 0 7.48 1.45 7.5 7.5 0 0 0 4.84-4.51 7.6 7.6 0 0 0 -1.52-7.55c-.11-.12-.28.06-.18.17a7.38 7.38 0 0 1 1.71 6.43 7.1 7.1 0 0 1 -4.09 4.91 8.07 8.07 0 0 1 -7.17-.58 6.1 6.1 0 0 1 -1.59-1 3.39 3.39 0 0 1 -.87-1.93 7.58 7.58 0 0 1 .32-3.34 8.72 8.72 0 0 1 4.79-5.36c.15-.07 0-.28-.13-.22z"/><path d="m644.61 549.88a4 4 0 0 0 -1.22 4.42 4.76 4.76 0 0 0 3.87 3 6.1 6.1 0 0 0 5-1.82c1.24-1.24 2.12-3.2 1.47-4.93a3 3 0 0 0 -4-1.8c-.14.07 0 .29.13.22a2.77 2.77 0 0 1 3.61 1.6 4.55 4.55 0 0 1 -1.27 4.62 6 6 0 0 1 -4.48 1.91 4.66 4.66 0 0 1 -3.89-2.38 3.8 3.8 0 0 1 .94-4.66c.13-.1 0-.27-.17-.18z"/><path d="m667.67 574.65a7.29 7.29 0 0 0 -6.45 2.44 6.63 6.63 0 0 0 -1.29 6.64 7.17 7.17 0 0 0 5 4.68 10 10 0 0 0 8.1-2.11c2.44-2.33 1.3-6 .26-8.71-.05-.15-.3-.08-.24.07.86 2.24 1.88 5.1.62 7.4a6.17 6.17 0 0 1 -3.41 2.57 9.87 9.87 0 0 1 -4 .71c-4.9-.25-8.24-6-5.48-10.28a7.09 7.09 0 0 1 6.81-3.17c.16 0 .22-.21.07-.24z"/><path d="m628.7 610.58c2.1-3.07 6.44-4.13 9.44-1.71a5.63 5.63 0 0 1 2.16 4.33 5.8 5.8 0 0 1 -2.34 4.65c-.13.09 0 .31.13.21a6 6 0 0 0 1.77-7.54 6.42 6.42 0 0 0 -7.31-3 7.33 7.33 0 0 0 -4.07 2.94c-.09.13.13.26.22.13z"/><path d="m659.72 605.91a8.76 8.76 0 0 0 -2.64 7.06 7.84 7.84 0 0 0 3.66 5.8 7 7 0 0 0 6.77.39 6.64 6.64 0 0 0 3.85-5.45 6.51 6.51 0 0 0 -3.59-6.21c-.14-.06-.27.15-.12.22a6.16 6.16 0 0 1 .43 10.84 6.73 6.73 0 0 1 -6.6.34 7.64 7.64 0 0 1 -4-5.22 8.45 8.45 0 0 1 2.46-7.59c.11-.12-.07-.29-.18-.18z"/><path d="m671.59 560.42h.27a.13.13 0 0 0 .09 0 .15.15 0 0 0 0-.09.12.12 0 0 0 -.13-.12h-.27a.12.12 0 0 0 -.09 0 .18.18 0 0 0 0 .09.13.13 0 0 0 .13.13z"/><path d="m695 599.7a7.52 7.52 0 0 0 -4.84 4.71 7.59 7.59 0 0 0 -.82 3.81c.21 1.27 1.45 2 2.49 2.54a10.1 10.1 0 0 0 8.27.63 7.45 7.45 0 0 0 4.59-5.28 6.11 6.11 0 0 0 -2.94-6.44c-.14-.07-.27.14-.12.22a5.79 5.79 0 0 1 2.9 5.43 6.86 6.86 0 0 1 -3.71 5.45 9.23 9.23 0 0 1 -7.51.36 7 7 0 0 1 -3.41-2.13c-.74-1.12-.18-2.71.22-3.87.82-2.34 2.41-4.58 4.92-5.21a.12.12 0 0 0 -.06-.24z"/><path d="m672.59 640.71a7.54 7.54 0 0 1 4.57-4.42 6 6 0 0 1 6 1.33 5.59 5.59 0 0 1 1.12 6.5 11 11 0 0 1 -4.41 5.29c-2.74 1.52-5.34-.08-7.57-1.72-.13-.1-.25.12-.13.22 2.09 1.54 4.55 3.11 7.21 2 2.23-.92 3.94-3.19 5-5.31a6 6 0 0 0 -.51-6.67 6.26 6.26 0 0 0 -5.85-2.12 7.69 7.69 0 0 0 -5.61 4.82c-.06.15.18.21.24.06z"/><path d="m649.82 659a4.41 4.41 0 0 1 4-1.84 5.48 5.48 0 0 1 4.16 2.59 8.65 8.65 0 0 1 1.34 5c-.08 2.17-1.38 3.61-2.89 5s-3.58 3-5.8 2.29c-.15-.05-.22.19-.06.25 2 .65 3.86-.49 5.34-1.74s3.27-2.9 3.59-5c.52-3.54-1.41-8.12-5.32-8.63a4.7 4.7 0 0 0 -4.62 1.93c-.09.13.13.26.21.12z"/><path d="m675.28 677.78a4.36 4.36 0 0 1 3.93-1.77 6.78 6.78 0 0 1 4.2 2.12 9.24 9.24 0 0 1 2.59 8.26 8 8 0 0 1 -5.2 5.86 7 7 0 0 1 -7.3-2.13c-2.46-2.93-1.34-7.06-.35-10.34.05-.16-.19-.22-.24-.07-1 3.19-2 7.09 0 10.09a7.23 7.23 0 0 0 7.32 2.85 8.14 8.14 0 0 0 5.9-5.85 9.45 9.45 0 0 0 -2.37-8.64 7.23 7.23 0 0 0 -4.58-2.4 4.63 4.63 0 0 0 -4.14 1.89c-.09.14.12.26.21.13z"/><path d="m651.24 704.65a7.41 7.41 0 0 1 8.42 8.53c0 .15.22.22.24.06a7.66 7.66 0 0 0 -8.73-8.83c-.15 0-.09.27.07.24z"/><path d="m683.08 713.22c0-3.47 1.65-7.32 5.36-8.2 3.53-.84 6.14 2.21 8 4.7.1.12.32 0 .22-.13-2-2.59-4.68-5.68-8.34-4.81-3.82.9-5.48 4.86-5.54 8.44a.13.13 0 0 0 .25 0z"/><path d="m705.49 663.44c-1.55 2.73-3.27 5.89-2.36 9.13a5.9 5.9 0 0 0 5.06 4.14c5.47.73 8.9-4.89 8-9.8a6.22 6.22 0 0 0 -2.25-4 11.52 11.52 0 0 0 -4.39-1.72c-.16 0-.23.21-.07.24a13.46 13.46 0 0 1 3.72 1.29 5.49 5.49 0 0 1 2.51 3.27 9 9 0 0 1 -.91 7.22 6.6 6.6 0 0 1 -5.8 3.31 5.87 5.87 0 0 1 -5.45-3.41c-1.32-3.31.53-6.72 2.13-9.55a.12.12 0 1 0 -.21-.12z"/><path d="m716.26 627.9c-2.61.39-5.41 1-7.24 3.08a5.48 5.48 0 0 0 -.89 6c1.94 4.28 8.48 4.74 11.15.91 1.84-2.63.3-5.82-1.06-8.28-.07-.14-.29 0-.21.12 1.18 2.14 2.59 4.83 1.49 7.28a6.09 6.09 0 0 1 -5.4 3.25 6 6 0 0 1 -5.52-3 5.24 5.24 0 0 1 .5-6c1.78-2.13 4.62-2.76 7.25-3.15.16 0 .09-.26-.07-.24z"/><path d="m691.6 577.88a5.79 5.79 0 0 0 8 5.8c.15-.06.08-.3-.07-.24a5.54 5.54 0 0 1 -7.65-5.56c0-.16-.24-.16-.25 0z"/><path d="m668.82 556.69a4.69 4.69 0 0 0 5 6.44c.15 0 .16-.27 0-.25a4.45 4.45 0 0 1 -4.75-6.12c.06-.15-.18-.22-.24-.07z"/><path d="m730.38 609.69a10.5 10.5 0 0 0 3 8.54c1 1.06 2.53 2.21 4.11 2.1s2.88-1.35 3.95-2.43c.12-.11-.06-.29-.17-.18-1.07 1.08-2.4 2.39-4 2.37s-3-1.28-4-2.39a10.3 10.3 0 0 1 -2.57-8c0-.16-.23-.16-.25 0z"/><path d="m750.56 634.42a6.9 6.9 0 0 0 -4.38 5.2 5.06 5.06 0 0 0 3.05 5.53 4.35 4.35 0 0 0 3.63-.24.12.12 0 1 0 -.13-.21 4.18 4.18 0 0 1 -4-.05 4.59 4.59 0 0 1 -2.28-3.28c-.53-3 1.51-5.61 4.16-6.7.15-.06.09-.31-.06-.25z"/><path d="m736.07 672.48c-1.23-3.82-1.48-8.82 2.12-11.49a5.5 5.5 0 0 1 5.59-.64c1.71.87 2.57 2.71 3.31 4.38.07.15.28 0 .22-.12a9.84 9.84 0 0 0 -2.61-4 5.2 5.2 0 0 0 -4.09-1c-3.16.53-5.14 3.48-5.55 6.48a14.37 14.37 0 0 0 .77 6.37c0 .16.29.09.24-.06z"/><path d="m717.74 698.12a7.64 7.64 0 0 1 8.56-8.88c.16 0 .16-.23 0-.25a7.89 7.89 0 0 0 -8.8 9.2c0 .16.26.09.24-.07z"/><path d="m582 471.27a28.18 28.18 0 0 0 -7.3 17.66 27.24 27.24 0 0 0 .31 5.56c0 .16.27.09.24-.07a27.93 27.93 0 0 1 6.93-23c.11-.11-.07-.29-.18-.17z"/><path d="m567.3 482.71a15 15 0 0 1 2.54-7.47c.09-.13-.13-.26-.22-.13a15.34 15.34 0 0 0 -2.57 7.6c0 .16.24.16.25 0z"/><path d="m692.34 496.44a25.17 25.17 0 0 1 -1.49 19.2c-.07.14.14.27.21.12a25.42 25.42 0 0 0 1.52-19.39c-.05-.15-.29-.09-.24.07z"/><path d="m700.11 503.92a18.77 18.77 0 0 1 -.79 10c-.06.15.18.22.24.07a19 19 0 0 0 .79-10.13c0-.16-.27-.09-.24.07z"/><path d="m589.36 398.89 6.7 7.07c.11.12.28-.06.17-.17l-6.7-7.07c-.11-.12-.28.06-.17.17z"/><path d="m584.54 411.67 3.38 1.4c.15.06.22-.18.07-.24l-3.39-1.4c-.15-.06-.21.18-.06.24z"/><path d="m602.39 392.9a18.14 18.14 0 0 1 1.45 6.65.13.13 0 0 0 .25 0 18.31 18.31 0 0 0 -1.49-6.77c-.06-.15-.28 0-.21.12z"/><path d="m614.5 395.86.37-1.49a.12.12 0 0 0 -.24-.06l-.37 1.48c0 .16.2.23.24.07z"/><path d="m753.89 602c4 1.07 6.84 4.68 9 8a37.69 37.69 0 0 1 5.11 11.35 37.06 37.06 0 0 1 1.13 7c0 .16.26.16.25 0a36.86 36.86 0 0 0 -9.86-23.06 12.32 12.32 0 0 0 -5.57-3.53.12.12 0 0 0 -.06.24z"/><path d="m769.51 602.75a31 31 0 0 1 5.76 12.25c0 .16.28.1.24-.06a31.25 31.25 0 0 0 -5.82-12.4c-.1-.13-.28 0-.18.17z"/></svg>